<svg width="140" height="140" viewBox="0 0 140 140" fill="none" xmlns="http://www.w3.org/2000/svg">
<circle cx="70" cy="70" r="70" fill="white"/>
<path d="M40.6074 42C39.8342 42 39.2074 42.6268 39.2074 43.4C39.2074 44.1732 39.8342 44.8 40.6074 44.8H47.8699L55.2417 79.625C55.4206 80.4854 55.9953 81.2091 56.7074 81.2H91.7074C92.447 81.2105 93.1273 80.5398 93.1273 79.8C93.1273 79.0603 92.447 78.3896 91.7074 78.4H57.8449L56.6636 72.8H94.5074C95.1342 72.793 95.7265 72.3179 95.8636 71.7063L100.764 50.7063C100.946 49.8938 100.24 49.006 99.4074 49H51.6324L50.3856 43.0938C50.2468 42.475 49.6415 41.9946 49.0074 42H40.6074ZM52.2231 51.8H64.6261L65.9167 59.5H53.8636L52.2231 51.8ZM67.4481 51.8H82.3667L81.0761 59.5H68.7386L67.4481 51.8ZM85.1886 51.8H97.6574L95.8636 59.5H83.8981L85.1886 51.8ZM54.4542 62.3H66.3761L67.6667 70H56.0731L54.4542 62.3ZM69.2199 62.3H80.5949L79.3261 70H70.4886L69.2199 62.3ZM83.4386 62.3H95.2074L93.3917 70H82.1481L83.4386 62.3ZM63.7074 85.4C60.2446 85.4 57.4074 88.2372 57.4074 91.7C57.4074 95.1628 60.2446 98 63.7074 98C67.1702 98 70.0074 95.1628 70.0074 91.7C70.0074 88.2372 67.1702 85.4 63.7074 85.4ZM84.7074 85.4C81.2446 85.4 78.4074 88.2372 78.4074 91.7C78.4074 95.1628 81.2446 98 84.7074 98C88.1702 98 91.0074 95.1628 91.0074 91.7C91.0074 88.2372 88.1702 85.4 84.7074 85.4ZM63.7074 88.2C65.657 88.2 67.2074 89.7504 67.2074 91.7C67.2074 93.6496 65.657 95.2 63.7074 95.2C61.7579 95.2 60.2074 93.6496 60.2074 91.7C60.2074 89.7505 61.7579 88.2 63.7074 88.2ZM84.7074 88.2C86.657 88.2 88.2074 89.7504 88.2074 91.7C88.2074 93.6496 86.657 95.2 84.7074 95.2C82.7579 95.2 81.2074 93.6496 81.2074 91.7C81.2074 89.7505 82.7579 88.2 84.7074 88.2Z" fill="#28285A"/>
</svg>
