<svg width="140" height="140" viewBox="0 0 140 140" fill="none" xmlns="http://www.w3.org/2000/svg">
<circle cx="70" cy="70" r="70" fill="white"/>
<path d="M62.293 62.111C63.364 59.92 63.518 57.449 62.727 55.146C61.096 50.393 55.895 47.852 51.142 49.483C46.389 51.114 43.848 56.315 45.479 61.068C46.774 64.848 50.323 67.228 54.11 67.228C55.09 67.228 56.084 67.067 57.064 66.731C59.367 65.94 61.222 64.295 62.293 62.111ZM50.953 64.547C49.231 63.707 47.943 62.244 47.32 60.438C46.039 56.7 48.034 52.612 51.772 51.331C52.542 51.065 53.326 50.939 54.096 50.939C57.071 50.939 59.864 52.808 60.879 55.776C61.502 57.589 61.383 59.528 60.543 61.25C59.703 62.972 58.24 64.26 56.434 64.883C54.621 65.506 52.675 65.387 50.953 64.547Z" fill="#28285A"/>
<path d="M86.135 56.987C82.033 58.394 79.842 62.874 81.256 66.976C81.935 68.964 83.356 70.567 85.239 71.484C86.331 72.016 87.507 72.289 88.683 72.289C89.544 72.289 90.405 72.149 91.245 71.862C93.233 71.183 94.836 69.762 95.753 67.879C96.677 65.989 96.81 63.861 96.124 61.873C94.717 57.771 90.237 55.58 86.135 56.987ZM94.003 67.018C93.31 68.439 92.106 69.503 90.615 70.014C89.124 70.525 87.514 70.427 86.1 69.734C84.679 69.041 83.615 67.837 83.104 66.339C82.047 63.259 83.692 59.885 86.772 58.828C87.409 58.611 88.053 58.506 88.69 58.506C91.147 58.506 93.443 60.046 94.29 62.496C94.794 64.001 94.696 65.604 94.003 67.018Z" fill="#28285A"/>
<path d="M65.0229 82.705C63.6929 83.797 62.8739 85.337 62.7059 87.052C62.5379 88.76 63.0489 90.433 64.1409 91.763C65.2329 93.093 66.7729 93.912 68.4879 94.08C68.7049 94.101 68.9149 94.108 69.1249 94.108C70.6089 94.108 72.0369 93.597 73.1989 92.645C74.5289 91.553 75.3479 90.013 75.5159 88.298C75.6839 86.59 75.1729 84.917 74.0879 83.587C71.8269 80.85 67.7669 80.451 65.0229 82.705ZM73.5699 88.116C73.4509 89.306 72.8769 90.384 71.9529 91.14C71.0289 91.903 69.8599 92.253 68.6699 92.141C67.4799 92.022 66.4019 91.448 65.6459 90.524C64.8829 89.6 64.5329 88.431 64.6449 87.241C64.7639 86.051 65.3379 84.973 66.2619 84.217C67.0949 83.531 68.1029 83.202 69.1039 83.202C70.3989 83.202 71.6869 83.762 72.5689 84.84C73.3319 85.757 73.6889 86.919 73.5699 88.116Z" fill="#28285A"/>
<path d="M57.386 77.21C57.568 77.21 57.757 77.182 57.939 77.119L62.755 75.467C63.595 75.18 64.078 74.277 63.854 73.416L63.245 71.071C64.183 70.406 65.051 69.643 65.828 68.789L68.082 69.685C68.908 70.014 69.86 69.643 70.252 68.845L72.485 64.267C72.877 63.469 72.583 62.489 71.813 62.041L69.72 60.809C69.916 59.675 69.993 58.52 69.937 57.365L72.163 56.406C72.982 56.056 73.395 55.118 73.101 54.278L71.449 49.462C71.162 48.622 70.259 48.139 69.398 48.363L67.053 48.972C66.388 48.034 65.625 47.166 64.771 46.389L65.667 44.135C65.996 43.309 65.625 42.357 64.827 41.965L60.249 39.732C59.451 39.34 58.471 39.634 58.023 40.404L56.791 42.497C55.657 42.301 54.502 42.224 53.347 42.28L52.395 40.04C52.045 39.221 51.107 38.808 50.267 39.102L45.451 40.754C44.611 41.041 44.128 41.944 44.352 42.805L44.961 45.15C44.023 45.815 43.155 46.578 42.378 47.432L40.124 46.536C39.298 46.207 38.346 46.578 37.954 47.376L35.721 51.954C35.329 52.752 35.623 53.732 36.393 54.18L38.486 55.412C38.29 56.546 38.213 57.708 38.269 58.856L36.043 59.815C35.224 60.165 34.811 61.103 35.105 61.943L36.757 66.759C37.044 67.599 37.947 68.082 38.808 67.858L41.153 67.249C41.818 68.194 42.581 69.055 43.435 69.832L42.539 72.086C42.21 72.912 42.581 73.864 43.379 74.256L47.957 76.489C48.755 76.881 49.735 76.587 50.183 75.817L51.415 73.724C52.549 73.92 53.711 73.99 54.859 73.941L55.818 76.167C56.084 76.818 56.721 77.21 57.386 77.21ZM54.964 71.988C53.823 72.058 52.668 71.988 51.541 71.778C50.876 71.652 50.19 71.96 49.847 72.548L48.615 74.648L44.436 72.604L45.332 70.343C45.584 69.706 45.409 68.978 44.898 68.53C44.037 67.774 43.274 66.906 42.623 65.961C42.238 65.401 41.538 65.135 40.88 65.31L38.521 65.919L37.009 61.523L39.242 60.557C39.872 60.284 40.264 59.647 40.222 58.968C40.152 57.827 40.222 56.672 40.432 55.545C40.558 54.873 40.25 54.194 39.662 53.851L37.562 52.619L39.606 48.44L41.867 49.336C42.504 49.588 43.232 49.413 43.68 48.902C44.436 48.041 45.304 47.278 46.249 46.627C46.809 46.242 47.075 45.542 46.9 44.884L46.291 42.525L50.687 41.013L51.653 43.246C51.926 43.876 52.563 44.268 53.242 44.219C54.39 44.149 55.538 44.219 56.665 44.436C57.33 44.562 58.016 44.254 58.359 43.666L59.591 41.566L63.77 43.61L62.874 45.871C62.622 46.508 62.797 47.236 63.308 47.684C64.169 48.44 64.932 49.308 65.583 50.253C65.968 50.813 66.668 51.079 67.326 50.904L69.685 50.295L71.197 54.691L68.964 55.657C68.334 55.93 67.942 56.567 67.991 57.246C68.061 58.387 67.991 59.542 67.774 60.669C67.648 61.341 67.956 62.02 68.544 62.363L70.644 63.595L68.6 67.781L66.339 66.885C65.702 66.633 64.974 66.808 64.526 67.319C63.77 68.18 62.902 68.943 61.957 69.594C61.397 69.979 61.131 70.679 61.306 71.337L61.915 73.696L57.519 75.208L56.553 72.975C56.294 72.38 55.706 71.995 55.069 71.995C55.027 71.988 54.992 71.988 54.964 71.988Z" fill="#28285A"/>
<path d="M103.754 67.613L102.074 66.626C102.221 65.723 102.284 64.806 102.242 63.889L104.034 63.119C104.797 62.79 105.182 61.915 104.909 61.131L103.509 57.057C103.236 56.273 102.403 55.818 101.598 56.028L99.715 56.518C99.183 55.776 98.574 55.083 97.895 54.46L98.616 52.647C98.924 51.877 98.581 50.988 97.832 50.617L93.961 48.727C93.212 48.363 92.302 48.636 91.882 49.357L90.895 51.037C89.992 50.89 89.075 50.827 88.158 50.869L87.388 49.077C87.059 48.314 86.184 47.929 85.4 48.202L81.326 49.602C80.542 49.875 80.087 50.715 80.297 51.513L80.787 53.396C80.045 53.928 79.352 54.537 78.729 55.216L76.916 54.495C76.146 54.187 75.25 54.53 74.886 55.279L72.996 59.15C72.632 59.899 72.905 60.809 73.626 61.229L75.306 62.216C75.159 63.119 75.096 64.036 75.138 64.953L73.346 65.723C72.583 66.052 72.198 66.927 72.464 67.711L73.864 71.785C74.137 72.569 74.977 73.024 75.775 72.814L77.658 72.324C78.19 73.066 78.799 73.759 79.478 74.382L78.757 76.195C78.449 76.965 78.792 77.854 79.541 78.225L83.412 80.115C84.161 80.479 85.071 80.206 85.491 79.485L86.478 77.805C87.381 77.952 88.298 78.015 89.215 77.973L89.985 79.765C90.244 80.36 90.839 80.731 91.462 80.731C91.63 80.731 91.805 80.703 91.973 80.647L96.047 79.247C96.831 78.974 97.286 78.134 97.076 77.336L96.6 75.446C97.342 74.914 98.035 74.305 98.658 73.626L100.471 74.347C101.241 74.655 102.13 74.312 102.501 73.563L104.391 69.692C104.748 68.95 104.475 68.033 103.754 67.613ZM100.884 72.415L99.099 71.708C98.504 71.47 97.818 71.638 97.398 72.114C96.768 72.835 96.04 73.472 95.249 74.011C94.724 74.368 94.479 75.026 94.633 75.649L95.116 77.511L91.658 78.701L90.895 76.937C90.65 76.377 90.104 76.02 89.502 76.02C89.474 76.02 89.439 76.02 89.411 76.02C88.452 76.083 87.493 76.02 86.555 75.845C85.925 75.726 85.288 76.02 84.959 76.573L83.986 78.232L80.703 76.629L81.41 74.844C81.648 74.249 81.48 73.563 81.004 73.143C80.283 72.506 79.646 71.785 79.107 70.994C78.75 70.469 78.092 70.217 77.469 70.378L75.607 70.861L74.417 67.403L76.181 66.64C76.769 66.388 77.14 65.786 77.098 65.149C77.035 64.197 77.098 63.231 77.273 62.293C77.392 61.663 77.098 61.026 76.545 60.697L74.886 59.724L76.489 56.441L78.274 57.148C78.869 57.386 79.555 57.225 79.975 56.742C80.605 56.021 81.333 55.384 82.124 54.845C82.649 54.488 82.894 53.83 82.74 53.207L82.257 51.345L85.715 50.155L86.478 51.919C86.73 52.507 87.332 52.871 87.969 52.836C88.928 52.773 89.887 52.836 90.825 53.011C91.455 53.13 92.092 52.836 92.421 52.283L93.394 50.624L96.677 52.227L95.97 54.012C95.739 54.614 95.9 55.3 96.383 55.72C97.104 56.35 97.741 57.078 98.28 57.869C98.637 58.394 99.302 58.639 99.918 58.478L101.78 57.995L102.97 61.453L101.206 62.216C100.618 62.468 100.247 63.07 100.289 63.707C100.352 64.659 100.289 65.625 100.114 66.563C99.995 67.193 100.289 67.83 100.842 68.159L102.501 69.132L100.884 72.415Z" fill="#28285A"/>
<path d="M81.214 85.6731L79.828 85.4281C79.695 84.7911 79.506 84.1751 79.268 83.5731L80.283 82.6001C80.836 82.0681 80.885 81.1931 80.402 80.6051L78.239 77.9661C77.756 77.3781 76.888 77.2591 76.258 77.6931L75.103 78.4981C74.564 78.1411 73.99 77.8401 73.395 77.5881L73.423 76.1811C73.437 75.4181 72.856 74.7601 72.1 74.6901L68.705 74.3541C67.949 74.2771 67.249 74.8091 67.116 75.5651L66.871 76.9511C66.234 77.0841 65.618 77.2731 65.016 77.5111L64.043 76.4961C63.518 75.9431 62.636 75.8941 62.048 76.3771L59.409 78.5471C58.821 79.0301 58.702 79.8981 59.136 80.5281L59.941 81.6831C59.584 82.2221 59.283 82.7961 59.031 83.3911L57.624 83.3631C57.617 83.3631 57.603 83.3631 57.596 83.3631C56.847 83.3631 56.203 83.9371 56.133 84.6861L55.797 88.0811C55.72 88.8441 56.252 89.5371 57.008 89.6701L58.394 89.9151C58.527 90.5451 58.716 91.1681 58.954 91.7701L57.939 92.7431C57.386 93.2681 57.337 94.1431 57.82 94.7381L59.99 97.3771C60.473 97.9651 61.341 98.0841 61.971 97.6501L63.126 96.8451C63.665 97.2021 64.239 97.5031 64.834 97.7551L64.806 99.1621C64.792 99.9251 65.373 100.583 66.129 100.653L69.524 100.989C69.573 100.996 69.622 100.996 69.664 100.996C70.364 100.996 70.987 100.485 71.113 99.7781L71.358 98.3921C71.995 98.2591 72.611 98.0701 73.213 97.8321L74.186 98.8471C74.711 99.4001 75.593 99.4491 76.181 98.9661L78.82 96.7961C79.408 96.3131 79.527 95.4451 79.093 94.8151L78.288 93.6601C78.645 93.1211 78.946 92.5471 79.198 91.9521L80.605 91.9801C80.612 91.9801 80.626 91.9801 80.633 91.9801C81.382 91.9801 82.019 91.4061 82.096 90.6571L82.432 87.2621C82.495 86.5061 81.963 85.8061 81.214 85.6731ZM80.192 90.0271L78.855 89.9991C78.848 89.9991 78.834 89.9991 78.827 89.9991C78.246 89.9991 77.721 90.3561 77.511 90.9021C77.245 91.5951 76.895 92.2531 76.468 92.8621C76.125 93.3451 76.125 93.9961 76.468 94.4791L77.231 95.5711L75.278 97.1741L74.354 96.2081C73.941 95.7811 73.304 95.6551 72.765 95.8931C72.086 96.1941 71.372 96.4111 70.644 96.5371C70.063 96.6351 69.601 97.0971 69.496 97.6781L69.265 98.9941L66.752 98.7491L66.78 97.4121C66.794 96.8171 66.43 96.2781 65.877 96.0681C65.184 95.8021 64.526 95.4521 63.917 95.0251C63.434 94.6821 62.783 94.6821 62.3 95.0251L61.208 95.7881L59.605 93.8421L60.571 92.9181C60.998 92.5051 61.124 91.8681 60.886 91.3291C60.585 90.6501 60.368 89.9361 60.242 89.2081C60.144 88.6271 59.682 88.1651 59.101 88.0601L57.785 87.8291L58.03 85.3161L59.367 85.3441C59.955 85.3651 60.501 84.9941 60.711 84.4411C60.977 83.7481 61.327 83.0901 61.754 82.4811C62.097 81.9981 62.097 81.3471 61.754 80.8641L60.991 79.7721L62.944 78.1691L63.868 79.1351C64.281 79.5621 64.918 79.6881 65.457 79.4501C66.136 79.1491 66.85 78.9321 67.578 78.8061C68.159 78.7081 68.621 78.2461 68.726 77.6651L68.957 76.3491L71.47 76.5941L71.442 77.9311C71.428 78.5261 71.792 79.0651 72.345 79.2751C73.038 79.5411 73.696 79.8911 74.305 80.3181C74.788 80.6611 75.439 80.6611 75.922 80.3181L77.014 79.5551L78.617 81.5081L77.651 82.4321C77.224 82.8451 77.098 83.4821 77.336 84.0211C77.637 84.7001 77.854 85.4141 77.98 86.1421C78.078 86.7231 78.54 87.1851 79.121 87.2901L80.437 87.5211L80.192 90.0271Z" fill="#28285A"/>
</svg>
