<svg width="140" height="140" viewBox="0 0 140 140" fill="none" xmlns="http://www.w3.org/2000/svg">
<circle cx="70" cy="70" r="70" fill="white"/>
<path d="M101.152 69.4753C101.152 69.39 101.122 69.3144 101.103 69.2349C101.096 69.2063 101.107 69.1759 101.098 69.1479L99.561 64.4295C99.4218 63.9963 99.0144 63.6998 98.558 63.6998H95.4897V44.3106C95.4897 44.2781 95.4742 44.2505 95.4712 44.2187C95.4673 44.1747 95.4552 44.1373 95.4459 44.0942C95.4133 43.9439 95.3541 43.8091 95.2651 43.69C95.251 43.6712 95.2525 43.6455 95.2371 43.6273L91.1117 38.7799C90.9106 38.5427 90.6167 38.406 90.3073 38.406H50.2189C49.9095 38.406 49.6156 38.5427 49.4144 38.7773L45.2877 43.6247C45.2697 43.6462 45.2712 43.676 45.2549 43.6984C45.1707 43.8136 45.1139 43.9426 45.0817 44.0864C45.071 44.1338 45.058 44.1751 45.0539 44.2235C45.0513 44.2536 45.0364 44.2796 45.0364 44.3105V63.6998H41.2217C40.7473 63.6998 40.3322 64.017 40.2045 64.4734L38.887 69.1918C38.877 69.2273 38.8897 69.2641 38.8835 69.3003C38.8733 69.3595 38.8483 69.4133 38.8483 69.4753C38.8483 69.521 38.8686 69.56 38.8742 69.6041C38.8781 69.6342 38.8651 69.6648 38.8715 69.6945L45.088 98.8248C45.088 100.351 46.3295 101.594 47.8558 101.594H92.718C94.2444 101.594 95.4872 100.351 95.4666 99.0259L101.131 69.6765C101.136 69.651 101.123 69.6263 101.127 69.6008C101.132 69.5578 101.152 69.5199 101.152 69.4753ZM47.1481 45.3677H93.3754V49.4313H47.1481V45.3677ZM50.7062 40.5204H89.8185L92.1481 43.2534H48.378L50.7062 40.5204ZM47.1481 51.5455H93.3754V63.6999H93.0466C92.5053 58.1266 87.8489 53.7397 82.1375 53.7397C80.008 53.7397 77.9841 54.3711 76.2098 55.5109C74.4911 54.4014 72.4563 53.7397 70.2628 53.7397C68.0683 53.7397 66.0329 54.4017 64.3136 55.5121C62.542 54.3704 60.5183 53.7397 58.3882 53.7397C52.6756 53.7397 48.02 58.1266 47.479 63.6999H47.1479V51.5455H47.1481ZM77.4605 63.6998C76.9429 60.1756 73.9285 57.4524 70.2631 57.4524C66.5966 57.4524 63.5821 60.1756 63.0643 63.6998H61.4658C61.996 59.2931 65.7158 55.8539 70.2631 55.8539C74.8104 55.8539 78.5303 59.2931 79.0604 63.6998H77.4605ZM75.3463 63.6998H65.1785C65.6688 61.3433 67.7622 59.5667 70.2631 59.5667C72.764 59.5667 74.8564 61.3434 75.3463 63.6998ZM53.304 63.6998C53.7942 61.3433 55.8877 59.5667 58.3885 59.5667C59.0796 59.5667 59.7374 59.7485 60.3657 60.0093C59.8176 61.1466 59.4812 62.3878 59.3539 63.6998H53.304ZM49.5911 63.6998C50.1213 59.2931 53.8411 55.8539 58.3884 55.8539C59.866 55.8539 61.2859 56.2153 62.5647 56.898C62.1726 57.2824 61.8331 57.7137 61.5015 58.1524C60.5328 57.6952 59.4742 57.4526 58.3884 57.4526C54.7219 57.4526 51.7073 60.1757 51.1896 63.6999H49.5911V63.6998ZM81.1723 63.6998C81.045 62.3874 80.708 61.1459 80.1598 60.0084C80.7877 59.7483 81.4456 59.5667 82.1377 59.5667C84.6385 59.5667 86.732 61.3433 87.2222 63.6998H81.1723ZM89.3365 63.6998C88.8187 60.1756 85.8043 57.4524 82.1377 57.4524C81.0509 57.4524 79.9923 57.6948 79.0242 58.1517C78.693 57.7134 78.3538 57.2824 77.9621 56.8984C79.2417 56.2154 80.6614 55.8538 82.1377 55.8538C86.6849 55.8538 90.4038 59.2929 90.9339 63.6997H89.3365V63.6998ZM97.7922 65.8141L98.6406 68.4182H41.2958L42.0236 65.8141H97.7922ZM93.3729 98.8249C93.3729 99.1858 93.079 99.4798 92.718 99.4798H47.8558C47.4935 99.4798 47.1996 99.1858 47.1765 98.6057L41.2084 70.5325H98.8161L93.3729 98.8249Z" fill="#28285A"/>
<path d="M78.216 74.3923C77.6746 74.1783 77.0609 74.4542 76.8507 74.9982L75.929 77.3831H63.8945L62.9727 74.9982C62.7638 74.4542 62.154 74.1783 61.6074 74.3923C61.0634 74.6012 60.7927 75.2122 61.0029 75.7562L62.1851 78.8192C62.3423 79.2267 62.733 79.4974 63.17 79.4974H76.6535C77.0905 79.4974 77.4811 79.2267 77.6384 78.8192L78.8206 75.7562C79.0307 75.2122 78.76 74.6012 78.216 74.3923Z" fill="#28285A"/>
<path d="M89.1315 46.4996H86.6344C86.0517 46.4996 85.5785 46.974 85.5785 47.5567C85.5785 48.1394 86.0517 48.6139 86.6344 48.6139H89.1315C89.7142 48.6139 90.1874 48.1394 90.1874 47.5567C90.1873 46.974 89.7142 46.4996 89.1315 46.4996Z" fill="#28285A"/>
<path d="M82.5076 46.4996C81.9249 46.4996 81.4517 46.974 81.4517 47.5567C81.4517 48.1394 81.9249 48.6139 82.5076 48.6139H82.6468C83.2295 48.6139 83.6331 48.1394 83.6331 47.5567C83.6331 46.974 83.0903 46.4996 82.5076 46.4996Z" fill="#28285A"/>
<path d="M79.3144 46.4996C78.7317 46.4996 78.2585 46.974 78.2585 47.5567C78.2585 48.1394 78.7317 48.6139 79.3144 48.6139H79.4691C80.0518 48.6139 80.4476 48.1394 80.4476 47.5567C80.4475 46.974 79.8971 46.4996 79.3144 46.4996Z" fill="#28285A"/>
</svg>
