<svg width="140" height="140" viewBox="0 0 140 140" fill="none" xmlns="http://www.w3.org/2000/svg">
<circle cx="70" cy="70" r="70" fill="white"/>
<path d="M103.906 74.3192C103.906 69.557 101.597 65.0092 97.7298 62.1545C96.9412 61.5705 95.9634 61.25 94.978 61.25C93.7442 61.25 92.5881 61.7433 91.7394 62.5822C91.5808 62.4498 91.4364 62.3044 91.2723 62.1786C90.6653 61.7148 89.9369 61.4392 89.1887 61.3255L89.6711 56.0219C89.682 55.895 89.6875 55.767 89.6875 55.6391C89.6875 53.305 87.7887 51.4062 85.4547 51.4062H85.1703C82.8363 51.4062 80.9375 53.305 80.9375 55.6391C80.9375 55.767 80.943 55.895 80.955 56.023L81.4395 61.3495C80.7461 61.4808 80.0756 61.7487 79.5091 62.1709C79.3133 62.3175 79.1394 62.4859 78.9512 62.6402C78.8539 62.5395 78.7511 62.4455 78.645 62.3547C78.7073 61.9905 78.75 61.6219 78.75 61.25C78.75 59.8609 78.3169 58.532 77.5141 57.4219C78.3169 56.3117 78.75 54.9839 78.75 53.5938C78.75 49.8488 75.5814 46.8136 71.8058 47.0433C71.1036 45.0308 69.4663 43.5138 67.4538 42.9286C66.1216 41.2672 64.1134 40.3452 61.962 40.4808C61.0564 37.8853 58.6042 36.0938 55.7812 36.0938C53.4133 36.0938 51.2575 37.3603 50.0959 39.3783C47.1997 39.4756 44.6961 41.5198 43.9786 44.3045C40.5923 45.5678 38.2812 48.8458 38.2812 52.5C38.2812 55.4302 39.7228 58.1087 42.1083 59.7275C41.7484 60.5489 41.5625 61.437 41.5625 62.3438C41.5625 64.3125 42.4375 66.1423 43.9392 67.3816C43.8134 67.8891 43.75 68.3998 43.75 68.9062C43.75 72.2575 46.2766 75.0312 49.525 75.4217L51.9444 82.1975C50.7052 83.1108 49.6497 84.2537 48.837 85.5662L43.1069 84.2931C42.8892 84.2428 42.665 84.2188 42.4397 84.2188C40.7498 84.2188 39.375 85.5936 39.375 87.2834V87.7166C39.375 88.0228 39.4341 88.3138 39.5183 88.5938H39.375C37.5659 88.5938 36.0938 90.0659 36.0938 91.875C36.0938 93.6841 37.5659 95.1562 39.375 95.1562H39.5183C39.4341 95.4362 39.375 95.7272 39.375 96.0334V96.4666C39.375 98.1564 40.7498 99.5312 42.4397 99.5312C42.665 99.5312 42.8892 99.5072 43.1047 99.458L48.837 98.1838C50.96 101.612 54.7433 103.906 59.0625 103.906H59.3195C59.9277 103.906 60.5434 103.859 61.1483 103.766L98.6541 97.9967C101.697 97.5275 103.906 94.9539 103.906 91.875C103.906 89.413 102.481 87.2944 100.359 86.2958C102.625 83.5887 103.906 80.1544 103.906 76.6183V74.3192ZM89.9423 63.9166C93.2072 66.4125 95.1562 70.3883 95.1562 74.5544V78.5717C95.1562 80.8139 94.5973 83.0091 93.5441 84.968L84.7733 83.6183C84.4123 82.0312 84.2188 80.4103 84.2188 78.7828V74.3422C84.2188 73.2397 84.3292 72.1383 84.4966 71.0467C84.7645 71.0697 85.0314 71.0938 85.3125 71.0938C88.4308 71.0938 90.7812 69.6828 90.7812 67.8125C90.7812 66.78 90.067 65.8634 88.83 65.2619L88.9908 63.4922C89.332 63.5611 89.6602 63.6989 89.9423 63.9166ZM85.1703 53.5938H85.4558C86.5834 53.5938 87.5011 54.5114 87.5011 55.6391C87.5011 55.7014 87.4989 55.7638 87.4923 55.825L86.4992 66.7483L87.3337 67.0162C88.2919 67.3225 88.5938 67.7261 88.5938 67.8125C88.5938 68.0848 87.43 68.9062 85.3125 68.9062C83.195 68.9062 82.0312 68.0848 82.0312 67.8125C82.0312 67.7261 82.3331 67.3225 83.2913 67.0152L84.1258 66.7472L83.1327 55.825C83.1272 55.7627 83.125 55.7003 83.125 55.6391C83.125 54.5114 84.0427 53.5938 85.1703 53.5938ZM81.6375 63.5283L81.795 65.2619C80.558 65.8634 79.8438 66.78 79.8438 67.8125C79.8438 69.0178 80.827 70.0252 82.355 70.5939C82.1592 71.8353 82.0312 73.0888 82.0312 74.3422V78.7828C82.0312 80.2856 82.1756 81.7863 82.4556 83.2617L76.008 82.2697C75.6569 81.0677 75.4688 79.8284 75.4688 78.5706V74.5533C75.4688 70.3937 77.4681 66.4191 80.8172 63.9231C81.0611 63.7416 81.3422 63.6081 81.6375 63.5283ZM69.8173 81.317C69.2234 79.8142 68.9062 78.2403 68.9062 76.6183V74.3181C68.9062 70.2472 70.8838 66.3578 74.1945 63.9122C74.6102 63.6059 75.1264 63.4375 75.647 63.4375C76.3077 63.4375 76.9158 63.7033 77.3609 64.1484C74.7819 66.9747 73.2812 70.6869 73.2812 74.5544V78.5717C73.2812 79.6994 73.4158 80.815 73.6597 81.9088L69.8173 81.317ZM69.9202 48.4542L70.1192 49.5797L71.2348 49.3314C71.5739 49.2559 71.8856 49.2188 72.1875 49.2188C74.6003 49.2188 76.5625 51.1809 76.5625 53.5938C76.5625 54.7433 76.1163 55.8305 75.3069 56.6552L74.5544 57.4219L75.3069 58.1886C76.1163 59.0133 76.5625 60.1005 76.5625 61.25C76.5625 61.2828 76.5559 61.3156 76.5559 61.3495C76.2595 61.2905 75.9577 61.25 75.647 61.25C74.6616 61.25 73.6838 61.5705 72.8952 62.1534C70.9045 63.6223 69.3372 65.5441 68.2741 67.7086C67.8595 66.418 67.4242 65.182 66.9758 64.0084C67.9875 58.6644 71.7402 55.5712 71.7784 55.5395L71.0938 54.6875L70.4102 53.8333C70.2581 53.9547 67.2995 56.3708 65.6381 60.7294C63.362 55.5034 61.2139 52.1227 61.0761 51.9083L59.2353 53.0917C59.2648 53.1366 60.9328 55.7605 62.8742 59.9375C59.6028 58.7059 55.8852 59.0461 55.6719 59.068L55.8895 61.2445C57.5345 61.0794 62.1939 61.1592 64.3705 63.3806C65.1372 65.2652 65.893 67.3312 66.5602 69.545C63.2352 67.8398 59.2681 67.8125 59.0625 67.8125V70C59.1139 70 63.9833 70.0328 66.8653 72.3242C66.7756 72.9827 66.7188 73.6477 66.7188 74.3192V76.6194C66.7188 78.097 66.9462 79.5419 67.3684 80.9419L61.1483 79.9848C60.8202 79.9345 60.4888 79.9006 60.1562 79.8766C57.7434 79.8766 55.7812 77.8991 55.7812 75.4698C55.7812 74.9602 55.883 74.4373 56.082 73.9134L56.4014 73.0767L55.6434 72.5977C54.3605 71.7861 53.5938 70.4069 53.5938 68.9062C53.5938 68.0455 53.8464 67.2109 54.3244 66.4912L55.0058 65.4675L53.9098 64.9108C51.6906 63.782 50.3125 61.542 50.3125 59.0625C50.3125 56.152 52.2681 53.5598 55.0692 52.7581L55.7484 52.5634L55.8502 51.8645C56.1619 49.7328 58.0136 48.125 60.1562 48.125C60.1967 48.125 60.2361 48.1337 60.2755 48.1392C60.352 48.1502 60.4297 48.16 60.5073 48.1655L61.2916 48.2289L61.6 47.5048C62.2902 45.8883 63.8695 44.8438 65.625 44.8438C67.7447 44.8438 69.5505 46.3619 69.9202 48.4542ZM51.0836 73.2812H50.3125C47.8997 73.2812 45.9375 71.3191 45.9375 68.9062C45.9375 68.3955 46.0392 67.8727 46.2383 67.3509L46.5588 66.5142L45.8008 66.0352C44.5167 65.2236 43.75 63.8444 43.75 62.3438C43.75 61.483 44.0027 60.6484 44.4806 59.9287L45.162 58.905L44.0661 58.3483C41.8469 57.2195 40.4688 54.9795 40.4688 52.5C40.4688 49.5895 42.4244 46.9973 45.2244 46.1956L45.9036 46.0009L46.0053 45.302C46.3181 43.1703 48.1698 41.5625 50.3125 41.5625C50.3541 41.5625 50.3945 41.5712 50.435 41.5767C50.5094 41.5866 50.5837 41.5964 50.6603 41.603L51.4478 41.6686L51.7573 40.9413C52.4464 39.3258 54.0258 38.2812 55.7812 38.2812C57.9009 38.2812 59.7067 39.7994 60.0764 41.8917L60.2755 43.0172L61.3911 42.7689C61.7302 42.6934 62.0419 42.6562 62.3438 42.6562C62.8469 42.6562 63.3248 42.7667 63.782 42.9264C62.1742 43.3967 60.7895 44.4642 59.9397 45.9408C57.0434 46.0381 54.5398 48.0823 53.8223 50.867C50.4361 52.1303 48.125 55.4083 48.125 59.0625C48.125 61.9927 49.5666 64.6712 51.952 66.29C51.5922 67.1114 51.4062 67.9995 51.4062 68.9062C51.4062 70.875 52.2812 72.7048 53.783 73.9452C53.6572 74.4527 53.5938 74.9623 53.5938 75.4688C53.5938 77.3905 54.4206 79.1175 55.7298 80.3228C55.0802 80.5109 54.4556 80.7548 53.8562 81.0447L51.0836 73.2812ZM41.5625 87.7166V87.2834C41.5625 86.7344 42.0941 86.3111 42.6311 86.427L47.8363 87.5842C47.7094 87.9145 47.5956 88.2503 47.4983 88.5938H42.4397C41.9563 88.5938 41.5625 88.2 41.5625 87.7166ZM38.2812 91.875C38.2812 91.2723 38.7723 90.7812 39.375 90.7812H42.4397H47.0859C47.0542 91.1422 47.0312 91.5053 47.0312 91.875C47.0312 92.2447 47.0542 92.6078 47.087 92.9688H42.4397H39.375C38.7723 92.9688 38.2812 92.4777 38.2812 91.875ZM42.6289 97.323C42.1105 97.4345 41.5625 97.0145 41.5625 96.4666V96.0334C41.5625 95.55 41.9563 95.1562 42.4397 95.1562H47.4972C47.5945 95.4997 47.7094 95.8355 47.8352 96.1658L42.6289 97.323ZM101.719 91.875C101.719 93.8667 100.29 95.5314 98.3227 95.8344L60.818 101.604C60.3214 101.68 59.8172 101.719 59.3195 101.719H59.0625C53.6353 101.719 49.2188 97.3022 49.2188 91.875C49.2188 86.4478 53.6353 82.0312 59.0625 82.0312H59.3195C59.8172 82.0312 60.3214 82.0695 60.8169 82.145L98.3216 87.9145C100.29 88.2186 101.719 89.8833 101.719 91.875ZM101.719 76.6183C101.719 79.9827 100.357 83.2377 97.988 85.6505L95.8147 85.3158C96.8133 83.218 97.3438 80.9178 97.3438 78.5706V74.5533C97.3438 70.6661 95.8628 66.9353 93.3187 64.1047C93.7606 63.688 94.3469 63.4375 94.978 63.4375C95.4997 63.4375 96.0148 63.6059 96.4305 63.9144C99.7412 66.3578 101.719 70.2483 101.719 74.3192V76.6183Z" fill="#28285A"/>
<path d="M60.1562 86.4062H57.9688V97.3438H60.1562V86.4062Z" fill="#28285A"/>
<path d="M68.9062 86.4062H66.7188V97.3438H68.9062V86.4062Z" fill="#28285A"/>
<path d="M77.6562 86.4062H75.4688V97.3438H77.6562V86.4062Z" fill="#28285A"/>
<path d="M86.4062 88.5938H84.2188V95.1562H86.4062V88.5938Z" fill="#28285A"/>
<path d="M95.1562 89.6875H92.9688V94.0625H95.1562V89.6875Z" fill="#28285A"/>
</svg>
