<svg width="140" height="140" viewBox="0 0 140 140" fill="none" xmlns="http://www.w3.org/2000/svg">
<circle cx="70" cy="70" r="70" fill="white"/>
<path d="M97.3438 37.1875H42.6562C39.6408 37.1875 37.1875 39.6408 37.1875 42.6562V51.4062V90.7812C37.1875 93.7967 39.6408 96.25 42.6562 96.25H43.75V99.5312C43.75 101.34 45.2222 102.812 47.0312 102.812H51.4062C53.2153 102.812 54.6875 101.34 54.6875 99.5312V96.25H85.3125V99.5312C85.3125 101.34 86.7847 102.812 88.5938 102.812H92.9688C94.7778 102.812 96.25 101.34 96.25 99.5312V96.25H97.3438C100.359 96.25 102.812 93.7967 102.812 90.7812V51.4062V42.6562C102.812 39.6408 100.359 37.1875 97.3438 37.1875ZM39.375 42.6562C39.375 40.8472 40.8472 39.375 42.6562 39.375H97.3438C99.1528 39.375 100.625 40.8472 100.625 42.6562V50.3125H39.375V42.6562ZM52.5 99.5312C52.5 100.134 52.0089 100.625 51.4062 100.625H47.0312C46.4286 100.625 45.9375 100.134 45.9375 99.5312V96.25H52.5V99.5312ZM94.0625 99.5312C94.0625 100.134 93.5714 100.625 92.9688 100.625H88.5938C87.9911 100.625 87.5 100.134 87.5 99.5312V96.25H94.0625V99.5312ZM100.625 90.7812C100.625 92.5903 99.1528 94.0625 97.3438 94.0625H95.1562H86.4062H53.5938H44.8438H42.6562C40.8472 94.0625 39.375 92.5903 39.375 90.7812V52.5H100.625V90.7812Z" fill="#28285A"/>
<path d="M42.6562 91.875H97.3438C97.9475 91.875 98.4375 91.385 98.4375 90.7812V64.5312C98.4375 63.9275 97.9475 63.4375 97.3438 63.4375H42.6562C42.0525 63.4375 41.5625 63.9275 41.5625 64.5312V90.7812C41.5625 91.385 42.0525 91.875 42.6562 91.875ZM43.75 65.625H96.25V89.6875H43.75V65.625Z" fill="#28285A"/>
<path d="M44.8438 59.0625H95.1562V61.25H97.3438V54.6875H95.1562V56.875H44.8438V54.6875H42.6562V61.25H44.8438V59.0625Z" fill="#28285A"/>
<path d="M91.875 41.5625C90.0659 41.5625 88.5938 43.0347 88.5938 44.8438C88.5938 46.6528 90.0659 48.125 91.875 48.125C93.6841 48.125 95.1562 46.6528 95.1562 44.8438C95.1562 43.0347 93.6841 41.5625 91.875 41.5625ZM91.875 45.9375C91.2723 45.9375 90.7812 45.4464 90.7812 44.8438C90.7812 44.2411 91.2723 43.75 91.875 43.75C92.4777 43.75 92.9688 44.2411 92.9688 44.8438C92.9688 45.4464 92.4777 45.9375 91.875 45.9375Z" fill="#28285A"/>
<path d="M82.0312 41.5625C80.2222 41.5625 78.75 43.0347 78.75 44.8438C78.75 46.6528 80.2222 48.125 82.0312 48.125C83.8403 48.125 85.3125 46.6528 85.3125 44.8438C85.3125 43.0347 83.8403 41.5625 82.0312 41.5625ZM82.0312 45.9375C81.4286 45.9375 80.9375 45.4464 80.9375 44.8438C80.9375 44.2411 81.4286 43.75 82.0312 43.75C82.6339 43.75 83.125 44.2411 83.125 44.8438C83.125 45.4464 82.6339 45.9375 82.0312 45.9375Z" fill="#28285A"/>
<path d="M55.7812 43.75H43.75V45.9375H55.7812V43.75Z" fill="#28285A"/>
<path d="M73.2812 41.5625H60.1562C59.5525 41.5625 59.0625 42.0525 59.0625 42.6562V47.0312C59.0625 47.635 59.5525 48.125 60.1562 48.125H73.2812C73.885 48.125 74.375 47.635 74.375 47.0312V42.6562C74.375 42.0525 73.885 41.5625 73.2812 41.5625ZM72.1875 45.9375H61.25V43.75H72.1875V45.9375Z" fill="#28285A"/>
<path d="M84.2188 82.0312C84.2188 77.8094 80.7844 74.375 76.5625 74.375H75.3134C74.8245 72.4937 73.1259 71.0938 71.0938 71.0938H68.9062C66.8741 71.0938 65.1755 72.4937 64.6866 74.375H63.4375C59.2156 74.375 55.7812 77.8094 55.7812 82.0312V85.3125H48.125V87.5H56.875H65.625H74.375H83.125H91.875V85.3125H84.2188V82.0312ZM57.9688 82.0312C57.9688 79.0158 60.422 76.5625 63.4375 76.5625H64.5312V85.3125H57.9688V82.0312ZM66.7188 75.4688C66.7188 74.2623 67.6998 73.2812 68.9062 73.2812H71.0938C72.3002 73.2812 73.2812 74.2623 73.2812 75.4688V85.3125H66.7188V75.4688ZM75.4688 85.3125V76.5625H76.5625C79.578 76.5625 82.0312 79.0158 82.0312 82.0312V85.3125H75.4688Z" fill="#28285A"/>
<path d="M50.1462 77.0765C49.7415 76.4312 49.0842 75.0892 49.2155 73.3643C49.3095 72.1306 49.7722 71.1714 50.143 70.584L48.2945 69.4159C47.5715 70.5589 47.1362 71.867 47.0345 73.1981C46.8551 75.5453 47.7455 77.362 48.2912 78.2359L50.1462 77.0765Z" fill="#28285A"/>
<path d="M56.7087 74.889C56.3041 74.2437 55.6467 72.9017 55.778 71.1768C55.872 69.9431 56.3347 68.9839 56.7055 68.3965L54.857 67.2284C54.1341 68.3714 53.6987 69.6795 53.597 71.0106C53.4176 73.3578 54.308 75.1745 54.8537 76.0484L56.7087 74.889Z" fill="#28285A"/>
<path d="M92.7992 69.4159L90.9508 70.584C91.3216 71.1714 91.7842 72.1306 91.8783 73.3643C92.0095 75.0892 91.3522 76.4312 90.9475 77.0765L92.8025 78.237C93.3483 77.3631 94.2375 75.5475 94.0592 73.1992C93.9575 71.867 93.5222 70.5589 92.7992 69.4159Z" fill="#28285A"/>
<path d="M86.24 76.0484C86.7858 75.1745 87.675 73.3589 87.4967 71.0106C87.395 69.6795 86.9597 68.3714 86.2367 67.2284L84.3883 68.3965C84.7591 68.9839 85.2217 69.9431 85.3158 71.1768C85.447 72.9017 84.7897 74.2437 84.385 74.889L86.24 76.0484Z" fill="#28285A"/>
</svg>
