<svg width="140" height="140" viewBox="0 0 140 140" fill="none" xmlns="http://www.w3.org/2000/svg">
<circle cx="70" cy="70" r="70" fill="white"/>
<path d="M101.547 96.7767C103.402 96.7767 104.928 98.3044 104.928 100.162C104.928 102.02 103.402 103.548 101.547 103.548H40.6358C38.7808 103.548 37.2554 102.02 37.2554 100.162C37.2554 98.3044 38.7808 96.7767 40.6358 96.7767H101.547ZM101.547 99.0446H40.6358C39.9912 99.0446 39.5201 99.5171 39.5201 100.162C39.5201 100.808 39.9916 101.296 40.6358 101.296H101.547C102.192 101.296 102.68 100.808 102.68 100.162C102.68 99.5168 102.191 99.0446 101.547 99.0446Z" fill="#28285A"/>
<path d="M42.9002 49.3285C41.0452 49.3285 39.52 50.8562 39.52 52.7141V61.7534C39.52 63.6112 41.0452 65.139 42.9002 65.139H65.4633C67.3182 65.139 68.8434 63.6112 68.8434 61.7534V52.7141C68.8434 50.8562 67.3182 49.3285 65.4633 49.3285H42.9002ZM42.9002 51.5967H65.4633C66.1078 51.5967 66.5789 52.0689 66.5789 52.7141V61.7534C66.5789 62.399 66.1075 62.8875 65.4633 62.8875H42.9002C42.2556 62.8875 41.7679 62.3983 41.7679 61.7534V52.7141C41.7679 52.0685 42.2564 51.5967 42.9002 51.5967Z" fill="#28285A"/>
<path d="M64.3309 64.0216V97.9108H66.5789V64.0216H64.3309Z" fill="#28285A"/>
<path d="M41.7679 64.0216V97.9108H44.0327V64.0216H41.7679Z" fill="#28285A"/>
<path d="M54.1735 38.0386C47.3349 38.0386 41.7679 43.6139 41.7679 50.4632H44.0327C44.0326 44.8349 48.554 40.2898 54.1735 40.2898C59.7931 40.2898 64.3311 44.8349 64.3311 50.4632H66.579C66.579 43.6139 61.0121 38.0386 54.1735 38.0386Z" fill="#28285A"/>
<path d="M54.157 35.7696C54.0081 35.7712 53.861 35.8025 53.7242 35.8613C53.5874 35.9201 53.4635 36.0053 53.3598 36.1123C53.2561 36.2193 53.1746 36.346 53.1199 36.4847C53.0652 36.6234 53.0386 36.7713 53.0413 36.9204V39.1555C53.0404 39.305 53.069 39.453 53.1255 39.5914C53.182 39.7298 53.2652 39.8557 53.3705 39.9617C53.4757 40.0678 53.6008 40.1518 53.7386 40.2093C53.8765 40.2667 54.0244 40.2963 54.1736 40.2963C54.3229 40.2963 54.4707 40.2667 54.6085 40.2093C54.7464 40.1518 54.8715 40.0678 54.9767 39.9617C55.0819 39.8557 55.1652 39.7298 55.2217 39.5914C55.2782 39.453 55.3067 39.305 55.3058 39.1555V36.9204C55.3087 36.7685 55.281 36.6178 55.2243 36.4768C55.1675 36.3359 55.083 36.208 54.9758 36.1006C54.8685 35.9931 54.7406 35.9083 54.6 35.8514C54.4593 35.7946 54.3087 35.7668 54.157 35.7696Z" fill="#28285A"/>
<path d="M54.0405 62.9043C53.7605 62.9365 53.5028 63.0726 53.3179 63.2856C53.133 63.4985 53.0344 63.773 53.0415 64.0551V90.0057C53.0406 90.1552 53.0692 90.3035 53.1257 90.4419C53.1822 90.5803 53.2654 90.7061 53.3706 90.8122C53.4759 90.9182 53.6009 91.0023 53.7388 91.0598C53.8766 91.1172 54.0245 91.1468 54.1738 91.1468C54.3231 91.1468 54.4709 91.1172 54.6087 91.0598C54.7465 91.0023 54.8716 90.9182 54.9769 90.8122C55.0821 90.7061 55.1653 90.5803 55.2218 90.4419C55.2783 90.3035 55.3069 90.1552 55.306 90.0057V64.0551C55.3102 63.8926 55.2795 63.7313 55.2157 63.5819C55.152 63.4324 55.0568 63.2984 54.9367 63.1892C54.8165 63.0799 54.6742 62.998 54.5196 62.9489C54.3649 62.8997 54.2015 62.8845 54.0405 62.9043Z" fill="#28285A"/>
<path d="M67.1451 61.7534V64.0216H73.3563V61.7534H67.1451Z" fill="#28285A"/>
<path d="M64.8971 69.6586V71.9267H73.3563V69.6586H64.8971Z" fill="#28285A"/>
<path d="M75.6041 61.1864C72.5029 61.1864 69.9592 63.734 69.9592 66.8402C69.9592 69.9461 72.5029 72.4938 75.6041 72.4939C78.7053 72.4939 81.249 69.9461 81.249 66.8402C81.249 63.734 78.7053 61.1864 75.6041 61.1864ZM75.6041 63.4546C77.4863 63.4546 78.9845 64.955 78.9845 66.8402C78.9845 68.7251 77.4863 70.2257 75.6041 70.2257C73.7221 70.2257 72.224 68.7251 72.224 66.8402C72.224 64.955 73.722 63.4546 75.6041 63.4546Z" fill="#28285A"/>
<path d="M80.0002 63.4549C79.7161 63.4888 79.4554 63.6295 79.2711 63.8486C79.0867 64.0678 78.9924 64.3491 79.0072 64.6354C79.0221 64.9216 79.1449 65.1914 79.3509 65.3903C79.557 65.5891 79.8309 65.7021 80.117 65.7064H91.3901C92.0261 65.7064 92.5225 66.2032 92.5224 66.8405C92.5225 67.4775 92.0262 67.9746 91.3901 67.9746H80.117C79.9614 67.9614 79.8048 67.9805 79.657 68.0311C79.5093 68.0817 79.3736 68.1624 79.2586 68.2682C79.1436 68.3741 79.0518 68.5029 78.989 68.6461C78.9262 68.7893 78.8938 68.9439 78.8938 69.1003C78.8938 69.2567 78.9262 69.4113 78.989 69.5545C79.0518 69.6977 79.1436 69.8263 79.2586 69.9321C79.3736 70.0379 79.5093 70.1187 79.657 70.1692C79.8048 70.2198 79.9614 70.2392 80.117 70.226H91.3901C93.2455 70.226 94.787 68.6987 94.787 66.8405C94.787 64.9821 93.2454 63.4549 91.3901 63.4549H80.117C80.0781 63.4529 80.0391 63.4529 80.0002 63.4549Z" fill="#28285A"/>
<path d="M84.4628 67.9575L82.5312 69.125L85.9117 74.762C86.0115 74.9295 86.1529 75.0681 86.3221 75.1647C86.4913 75.2612 86.6827 75.3122 86.8775 75.3127H90.2743C90.572 75.3094 90.8565 75.1884 91.0655 74.976C91.2745 74.7635 91.3911 74.4768 91.3899 74.1786V68.5418H89.142V73.0612H87.5269L84.4628 67.9575Z" fill="#28285A"/>
<path d="M86.8774 59.502C84.3992 59.502 82.3814 61.5394 82.3813 64.0216H84.6294C84.6294 62.7604 85.6183 61.7534 86.8774 61.7534C88.1366 61.7534 89.1419 62.7604 89.1419 64.0216H91.3899C91.3899 61.5394 89.3556 59.502 86.8774 59.502Z" fill="#28285A"/>
<path d="M75.4197 46.0437C73.8133 46.9726 73.2549 49.0594 74.1824 50.6684L77.5627 56.5324C78.4902 58.1413 80.5821 58.715 82.1885 57.7861L83.1691 57.2193C84.7756 56.2904 85.3255 54.189 84.3981 52.58L81.0179 46.716C80.0904 45.1072 78.0067 44.5478 76.4002 45.4769L75.4197 46.0437ZM76.5436 47.9937L77.5242 47.4266C78.0818 47.1038 78.7344 47.291 79.0565 47.8503L82.4368 53.7141C82.7591 54.2726 82.5946 54.9323 82.0371 55.255L81.0564 55.822C80.4989 56.1448 79.8317 55.9654 79.5096 55.4069L76.1294 49.5431C75.8071 48.9847 75.9861 48.3164 76.5437 47.9939L76.5436 47.9937Z" fill="#28285A"/>
<path d="M81.0992 56.4498L79.1343 57.5839L82.5312 63.4545L84.4796 62.3204L81.0992 56.4498Z" fill="#28285A"/>
<path d="M84.5127 54.4819L82.5646 55.5993L85.9447 61.4699L87.8931 60.3525L84.5127 54.4819Z" fill="#28285A"/>
<path d="M101.548 82.0836L97.0348 82.1006V84.3521H101.531L101.548 89.4388C101.548 90.4719 100.881 91.1232 99.8494 91.1232H97.0353V93.3914H99.8494C102.02 93.3914 103.796 91.613 103.796 89.4388V84.3521C103.796 83.1748 102.743 82.0833 101.548 82.0839L101.548 82.0836Z" fill="#28285A"/>
<path d="M80.1167 78.698C79.9678 78.6974 79.8203 78.7264 79.6827 78.7832C79.5451 78.84 79.4199 78.9235 79.3147 79.029C79.2094 79.1344 79.126 79.2596 79.0693 79.3974C79.0126 79.5353 78.9838 79.683 78.9844 79.8321V93.3908C78.9844 96.5004 81.5245 99.0282 84.6293 99.0282V96.7767C82.7352 96.7767 81.2489 95.288 81.2489 93.3908V80.9662H95.9023V93.3908C95.9023 95.288 94.4161 96.7767 92.5222 96.7767V99.0282C95.6269 99.0282 98.1671 96.5004 98.1671 93.3908V79.8321C98.1676 79.683 98.1387 79.5353 98.082 79.3974C98.0253 79.2596 97.9419 79.1344 97.8366 79.029C97.7314 78.9235 97.6064 78.84 97.4687 78.7832C97.3311 78.7264 97.1835 78.6974 97.0346 78.698H80.1167Z" fill="#28285A"/>
<path d="M88.5592 83.7849C88.4103 83.7865 88.2633 83.8175 88.1265 83.8763C87.9897 83.9351 87.8659 84.0206 87.7621 84.1275C87.6584 84.2345 87.5769 84.361 87.5223 84.4997C87.4676 84.6384 87.4408 84.7865 87.4436 84.9356V92.8075C87.4436 93.1083 87.5629 93.3967 87.7753 93.6094C87.9876 93.822 88.2756 93.9416 88.5759 93.9416C88.8762 93.9416 89.1642 93.822 89.3766 93.6094C89.5889 93.3967 89.7083 93.1083 89.7083 92.8075V84.9356C89.7111 84.7837 89.6833 84.6327 89.6266 84.4918C89.5699 84.3509 89.4853 84.223 89.378 84.1156C89.2707 84.0081 89.143 83.9235 89.0023 83.8667C88.8616 83.8099 88.7109 83.782 88.5592 83.7849Z" fill="#28285A"/>
<path d="M84.6128 83.7849C84.4639 83.7865 84.3169 83.8175 84.1801 83.8763C84.0433 83.9351 83.9194 84.0206 83.8157 84.1275C83.712 84.2345 83.6305 84.361 83.5758 84.4997C83.5212 84.6384 83.4944 84.7865 83.4971 84.9356V92.8075C83.4971 93.1083 83.6165 93.3967 83.8289 93.6094C84.0412 93.822 84.3293 93.9416 84.6296 93.9416C84.9299 93.9416 85.2178 93.822 85.4302 93.6094C85.6425 93.3967 85.7619 93.1083 85.7619 92.8075V84.9356C85.7647 84.7837 85.7369 84.6327 85.6802 84.4918C85.6235 84.3509 85.5389 84.223 85.4316 84.1156C85.3243 84.0081 85.1966 83.9235 85.0559 83.8667C84.9152 83.8099 84.7645 83.782 84.6128 83.7849Z" fill="#28285A"/>
<path d="M92.5057 83.7849C92.3569 83.7865 92.2099 83.8175 92.0731 83.8763C91.9363 83.9351 91.8124 84.0206 91.7087 84.1275C91.605 84.2345 91.5235 84.361 91.4688 84.4997C91.4141 84.6384 91.3873 84.7865 91.3901 84.9356V92.8075C91.3901 92.9565 91.4194 93.1038 91.4763 93.2414C91.5332 93.379 91.6167 93.504 91.7218 93.6094C91.827 93.7147 91.9518 93.7984 92.0892 93.8554C92.2266 93.9124 92.3737 93.9416 92.5224 93.9416C92.6711 93.9416 92.8183 93.9124 92.9557 93.8554C93.0931 93.7984 93.218 93.7147 93.3231 93.6094C93.4283 93.504 93.5117 93.379 93.5686 93.2414C93.6255 93.1038 93.6548 92.9565 93.6548 92.8075V84.9356C93.6577 84.7837 93.6299 84.6327 93.5731 84.4918C93.5164 84.3509 93.4318 84.223 93.3245 84.1156C93.2173 84.0081 93.0895 83.9235 92.9488 83.8667C92.8081 83.8099 92.6574 83.782 92.5057 83.7849Z" fill="#28285A"/>
<path d="M100.324 44.2561C100.04 44.2898 99.7788 44.4303 99.5942 44.6495C99.4097 44.8688 99.3152 45.1501 99.33 45.4365C99.3449 45.7229 99.468 45.9928 99.6742 46.1917C99.8805 46.3906 100.154 46.5036 100.441 46.5076H101.54C101.695 46.5206 101.852 46.5014 102 46.4507C102.147 46.4001 102.283 46.3192 102.398 46.2133C102.513 46.1075 102.604 45.9792 102.667 45.836C102.73 45.6929 102.762 45.5381 102.762 45.3818C102.762 45.2255 102.73 45.0708 102.667 44.9276C102.604 44.7844 102.513 44.6558 102.398 44.55C102.283 44.4442 102.147 44.3635 102 44.3129C101.852 44.2622 101.695 44.243 101.54 44.2561H100.441C100.402 44.254 100.363 44.254 100.324 44.2561Z" fill="#28285A"/>
<path d="M94.679 44.2561C94.3947 44.2898 94.1339 44.4303 93.9493 44.6495C93.7648 44.8688 93.6703 45.1501 93.6851 45.4365C93.7 45.7229 93.8231 45.9928 94.0293 46.1917C94.2356 46.3906 94.5095 46.5036 94.7958 46.5076H95.895C96.0505 46.5206 96.207 46.5014 96.3547 46.4507C96.5024 46.4001 96.6379 46.3192 96.7528 46.2133C96.8677 46.1075 96.9595 45.9792 97.0222 45.836C97.0849 45.6929 97.1173 45.5381 97.1173 45.3818C97.1173 45.2255 97.0849 45.0708 97.0222 44.9276C96.9595 44.7844 96.8677 44.6558 96.7528 44.55C96.6379 44.4442 96.5024 44.3635 96.3547 44.3129C96.207 44.2622 96.0505 44.243 95.895 44.2561H94.7958C94.7569 44.254 94.7179 44.254 94.679 44.2561Z" fill="#28285A"/>
<path d="M91.3966 39.1641C91.3967 39.3124 91.3675 39.4593 91.3108 39.5964C91.2541 39.7335 91.1711 39.8581 91.0663 39.963C90.9616 40.068 90.8373 40.1512 90.7004 40.208C90.5635 40.2648 90.4168 40.2937 90.2686 40.2937C90.1205 40.2937 89.9738 40.2645 89.837 40.2077C89.7001 40.151 89.5759 40.068 89.4712 39.963C89.3664 39.8581 89.2833 39.7335 89.2266 39.5964C89.1699 39.4593 89.1409 39.3124 89.1409 39.1641C89.1409 38.8645 89.2597 38.5772 89.4712 38.3654C89.6827 38.1535 89.9695 38.0344 90.2686 38.0344C90.4167 38.0344 90.5634 38.0637 90.7003 38.1204C90.8371 38.1772 90.9615 38.2605 91.0662 38.3654C91.171 38.4703 91.2541 38.5947 91.3108 38.7318C91.3675 38.8688 91.3966 39.0157 91.3966 39.1641Z" fill="#28285A"/>
<path d="M100.42 54.9798C100.42 55.1281 100.391 55.275 100.334 55.4121C100.277 55.5491 100.194 55.6738 100.089 55.7787C99.9846 55.8836 99.8603 55.9666 99.7235 56.0234C99.5866 56.0802 99.44 56.1094 99.2918 56.1094C99.1437 56.1094 98.997 56.0802 98.8602 56.0234C98.7233 55.9666 98.599 55.8836 98.4942 55.7787C98.3895 55.6738 98.3065 55.5491 98.2498 55.4121C98.1931 55.275 98.1639 55.1281 98.1639 54.9798C98.1639 54.8314 98.1931 54.6845 98.2498 54.5474C98.3065 54.4104 98.3895 54.2859 98.4942 54.181C98.599 54.0761 98.7233 53.9929 98.8602 53.9361C98.997 53.8793 99.1437 53.8501 99.2918 53.8501C99.44 53.8501 99.5866 53.8793 99.7235 53.9361C99.8603 53.9929 99.9846 54.0761 100.089 54.181C100.194 54.2859 100.277 54.4104 100.334 54.5474C100.391 54.6845 100.42 54.8314 100.42 54.9798Z" fill="#28285A"/>
<path d="M99.2836 47.5413C99.2499 47.2565 99.1094 46.9952 98.8906 46.8103C98.6717 46.6255 98.3909 46.531 98.1049 46.5458C97.819 46.5607 97.5494 46.6838 97.3508 46.8903C97.1522 47.0969 97.0396 47.3716 97.0356 47.6583V48.759C97.0225 48.9148 97.0418 49.0716 97.0923 49.2195C97.1429 49.3674 97.2236 49.5031 97.3292 49.6182C97.4349 49.7333 97.5632 49.8253 97.7061 49.8882C97.849 49.951 98.0035 49.9833 98.1596 49.9833C98.3157 49.9833 98.47 49.951 98.6129 49.8882C98.7559 49.8253 98.8843 49.7333 98.9899 49.6182C99.0956 49.5031 99.1762 49.3674 99.2267 49.2195C99.2773 49.0716 99.2966 48.9148 99.2836 48.759V47.6583C99.2856 47.6193 99.2856 47.5803 99.2836 47.5413Z" fill="#28285A"/>
<path d="M99.2836 41.8875C99.2499 41.6027 99.1094 41.3414 98.8906 41.1565C98.6717 40.9717 98.3909 40.8771 98.1049 40.892C97.819 40.9069 97.5494 41.0299 97.3508 41.2365C97.1522 41.4431 97.0396 41.7177 97.0356 42.0045V43.1052C97.0225 43.261 97.0418 43.4178 97.0923 43.5657C97.1429 43.7136 97.2236 43.8496 97.3292 43.9646C97.4349 44.0797 97.5632 44.1715 97.7061 44.2344C97.849 44.2972 98.0035 44.3297 98.1596 44.3297C98.3157 44.3297 98.47 44.2972 98.6129 44.2344C98.7559 44.1715 98.8843 44.0797 98.9899 43.9646C99.0956 43.8496 99.1762 43.7136 99.2267 43.5657C99.2773 43.4178 99.2966 43.261 99.2836 43.1052V42.0045C99.2856 41.9655 99.2856 41.9264 99.2836 41.8875Z" fill="#28285A"/>
<path d="M73.3505 85.4813C73.3505 85.6297 73.3213 85.7766 73.2647 85.9137C73.208 86.0507 73.1248 86.1754 73.0201 86.2803C72.9154 86.3852 72.7911 86.4682 72.6543 86.525C72.5174 86.5818 72.3707 86.611 72.2226 86.611C72.0745 86.611 71.9278 86.5818 71.791 86.525C71.6541 86.4682 71.5298 86.3852 71.425 86.2803C71.3203 86.1754 71.2371 86.0507 71.1805 85.9137C71.1238 85.7766 71.0946 85.6297 71.0946 85.4813C71.0946 85.333 71.1238 85.1861 71.1805 85.049C71.2371 84.912 71.3203 84.7875 71.425 84.6826C71.5298 84.5777 71.6541 84.4944 71.791 84.4377C71.9278 84.3809 72.0745 84.3517 72.2226 84.3517C72.3707 84.3517 72.5174 84.3809 72.6543 84.4377C72.7911 84.4945 72.9154 84.5777 73.0201 84.6826C73.1248 84.7875 73.208 84.912 73.2647 85.049C73.3213 85.1861 73.3505 85.333 73.3505 85.4813Z" fill="#28285A"/>
<path d="M102.675 64.0171C102.675 64.1655 102.646 64.3124 102.589 64.4494C102.532 64.5865 102.449 64.7112 102.345 64.8161C102.24 64.921 102.116 65.004 101.979 65.0608C101.842 65.1176 101.695 65.1468 101.547 65.1468C101.399 65.1468 101.252 65.1176 101.115 65.0608C100.979 65.004 100.854 64.921 100.75 64.8161C100.645 64.7112 100.562 64.5865 100.505 64.4494C100.448 64.3124 100.419 64.1655 100.419 64.0171C100.419 63.8688 100.448 63.7219 100.505 63.5848C100.562 63.4477 100.645 63.3233 100.75 63.2184C100.854 63.1135 100.979 63.0302 101.115 62.9734C101.252 62.9167 101.399 62.8875 101.547 62.8875C101.695 62.8875 101.842 62.9167 101.979 62.9734C102.116 63.0302 102.24 63.1135 102.345 63.2184C102.449 63.3233 102.532 63.4477 102.589 63.5848C102.646 63.7219 102.675 63.8688 102.675 64.0171Z" fill="#28285A"/>
</svg>
