<svg width="140" height="140" viewBox="0 0 140 140" fill="none" xmlns="http://www.w3.org/2000/svg">
<circle cx="70" cy="70" r="70" fill="white"/>
<path d="M40.4688 96.25H44.8438V99.5312C44.8438 100.135 45.3329 100.625 45.9375 100.625H54.6875C55.2921 100.625 55.7812 100.135 55.7812 99.5312V96.25H84.2188V99.5312C84.2188 100.135 84.7079 100.625 85.3125 100.625H94.0625C94.6671 100.625 95.1562 100.135 95.1562 99.5312V96.25H99.5312C101.341 96.25 102.812 94.7781 102.812 92.9688V47.0312C102.812 45.2219 101.341 43.75 99.5312 43.75H94.7386L92.8534 39.9796C92.6675 39.6089 92.2894 39.375 91.875 39.375H76.5625C76.1481 39.375 75.77 39.6089 75.5841 39.9796L73.6989 43.75H66.3011L64.4159 39.9796C64.23 39.6089 63.8519 39.375 63.4375 39.375H48.125C47.7106 39.375 47.3325 39.6089 47.1466 39.9796L45.2614 43.75H40.4688C38.6594 43.75 37.1875 45.2219 37.1875 47.0312V92.9688C37.1875 94.7781 38.6594 96.25 40.4688 96.25ZM53.5938 98.4375H47.0312V96.25H53.5938V98.4375ZM92.9688 98.4375H86.4062V96.25H92.9688V98.4375ZM99.5312 94.0625H94.0625H85.3125H54.6875H45.9375H40.4688C39.8653 94.0625 39.375 93.5717 39.375 92.9688V59.0625H100.625V92.9688C100.625 93.5717 100.135 94.0625 99.5312 94.0625ZM77.2386 41.5625H91.1989L92.2926 43.75H76.1449L77.2386 41.5625ZM48.8011 41.5625H62.7614L63.8551 43.75H47.7074L48.8011 41.5625ZM40.4688 45.9375H45.9375H65.625H74.375H94.0625H99.5312C100.135 45.9375 100.625 46.4283 100.625 47.0312V56.875H39.375V47.0312C39.375 46.4283 39.8653 45.9375 40.4688 45.9375Z" fill="#28285A"/>
<path d="M70 55.7812C71.1685 55.7812 72.2676 55.3257 73.0933 54.4995C73.92 53.6733 74.375 52.5748 74.375 51.4062C74.375 50.2377 73.92 49.1392 73.0933 48.313C72.2676 47.4868 71.1685 47.0312 70 47.0312C68.8315 47.0312 67.7324 47.4868 66.9067 48.313C66.08 49.1392 65.625 50.2377 65.625 51.4062C65.625 52.5748 66.08 53.6733 66.9067 54.4995C67.7324 55.3257 68.8315 55.7812 70 55.7812ZM71.5466 52.9529C70.9987 53.5008 70.1835 53.6773 69.4539 53.499L72.1063 50.8466C72.1542 51.0279 72.1875 51.2137 72.1875 51.4062C72.1875 51.9905 71.96 52.5395 71.5466 52.9529ZM68.4534 49.8596C68.8667 49.4463 69.4157 49.2188 70 49.2188C70.1925 49.2188 70.3784 49.2521 70.5596 49.3L67.8937 51.9659C67.8458 51.7846 67.8125 51.5988 67.8125 51.4062C67.8125 50.822 68.04 50.273 68.4534 49.8596Z" fill="#28285A"/>
<path d="M55.7812 55.7812C58.1941 55.7812 60.1562 53.8186 60.1562 51.4062C60.1562 48.9939 58.1941 47.0312 55.7812 47.0312C53.3684 47.0312 51.4062 48.9939 51.4062 51.4062C51.4062 53.8186 53.3684 55.7812 55.7812 55.7812ZM55.7812 53.5938C54.9754 53.5938 54.2776 53.1507 53.898 52.5H57.6645C57.2849 53.1507 56.5871 53.5938 55.7812 53.5938ZM55.7812 49.2188C56.5871 49.2188 57.2849 49.6618 57.6645 50.3125H53.898C54.2776 49.6618 54.9754 49.2188 55.7812 49.2188Z" fill="#28285A"/>
<path d="M84.2188 55.7812C85.3873 55.7812 86.4864 55.3257 87.312 54.4995C88.1387 53.6733 88.5938 52.5748 88.5938 51.4062C88.5938 50.2377 88.1387 49.1392 87.312 48.313C86.4864 47.4868 85.3873 47.0312 84.2188 47.0312C83.0502 47.0312 81.9511 47.4868 81.1255 48.313C80.2988 49.1392 79.8438 50.2377 79.8438 51.4062C79.8438 52.5748 80.2988 53.6733 81.1255 54.4995C81.9511 55.3257 83.0502 55.7812 84.2188 55.7812ZM82.6721 52.9529C82.2588 52.5395 82.0312 51.9905 82.0312 51.4062C82.0312 51.2137 82.0646 51.0279 82.1125 50.8466L84.7648 53.499C84.0352 53.6773 83.2201 53.5008 82.6721 52.9529ZM85.7654 49.8596C86.1787 50.273 86.4062 50.822 86.4062 51.4062C86.4062 51.5988 86.3729 51.7846 86.325 51.9659L83.6591 49.3C83.8404 49.2521 84.0262 49.2188 84.2188 49.2188C84.803 49.2188 85.352 49.4463 85.7654 49.8596Z" fill="#28285A"/>
<path d="M96.25 62.3438H77.6562H62.3438H43.75C43.1454 62.3438 42.6562 62.8335 42.6562 63.4375V89.6875C42.6562 90.2915 43.1454 90.7812 43.75 90.7812H96.25C96.8546 90.7812 97.3438 90.2915 97.3438 89.6875V63.4375C97.3438 62.8335 96.8546 62.3438 96.25 62.3438ZM76.5625 64.5312V66.7188H63.4375V64.5312H76.5625ZM61.25 64.5312V67.8125C61.25 68.4165 61.7392 68.9062 62.3438 68.9062H77.6562C78.2608 68.9062 78.75 68.4165 78.75 67.8125V64.5312H95.1562V77.6562H44.8438V64.5312H61.25ZM44.8438 88.5938V79.8438H95.1562V88.5938H44.8438Z" fill="#28285A"/>
</svg>
