<svg width="140" height="140" viewBox="0 0 140 140" fill="none" xmlns="http://www.w3.org/2000/svg">
<circle cx="70" cy="70" r="70" fill="white"/>
<path d="M97.5758 55.4167H72.1213C68.7591 55.4167 66.0228 58.153 66.0228 61.5151V64.9621H63.3713V51.7045H71.0607C76.1728 51.7045 80.341 47.547 80.341 42.4242V38.1818C80.341 37.747 79.9804 37.3864 79.5455 37.3864H37.1213C36.6864 37.3864 36.3258 37.747 36.3258 38.1818V42.4242C36.3258 47.547 40.494 51.7045 45.6061 51.7045H53.2955V64.9621H50.644V60.4545C50.644 60.0197 50.2834 59.6591 49.8485 59.6591H41.3637C40.9288 59.6591 40.5682 60.0197 40.5682 60.4545V81.6667C40.5682 82.1015 40.9288 82.4621 41.3637 82.4621H49.8485C50.2834 82.4621 50.644 82.1015 50.644 81.6667V77.1591H66.0228V82.7273C66.0228 85.2091 63.997 87.2348 61.5152 87.2348H50.9091C47.547 87.2348 44.8107 89.9712 44.8107 93.3333C44.8107 96.6954 47.547 99.4318 50.9091 99.4318H56.4773V101.818C56.4773 102.253 56.8379 102.614 57.2728 102.614H63.6364C64.0713 102.614 64.4319 102.253 64.4319 101.818V99.4318H92.5379V101.818C92.5379 102.253 92.8985 102.614 93.3334 102.614H99.697C100.132 102.614 100.492 102.253 100.492 101.818V99.4318H102.879C103.314 99.4318 103.674 99.0712 103.674 98.6363V61.5151C103.674 58.153 100.938 55.4167 97.5758 55.4167ZM37.9167 38.9773H78.75V41.6288H37.9167V38.9773ZM37.9591 43.2197H78.7076C78.3046 47.0909 75.0273 50.1136 71.0607 50.1136H45.6061C41.6394 50.1136 38.3622 47.0909 37.9591 43.2197ZM54.8864 51.7045H61.7803V64.9621H54.8864V51.7045ZM49.0531 80.8712H42.1591V78.2197H43.4849C43.9197 78.2197 44.2804 77.8591 44.2804 77.4242C44.2804 76.9894 43.9197 76.6288 43.4849 76.6288H42.1591V73.9773H43.4849C43.9197 73.9773 44.2804 73.6167 44.2804 73.1818C44.2804 72.747 43.9197 72.3864 43.4849 72.3864H42.1591V69.7348H43.4849C43.9197 69.7348 44.2804 69.3742 44.2804 68.9394C44.2804 68.5045 43.9197 68.1439 43.4849 68.1439H42.1591V65.4924H43.4849C43.9197 65.4924 44.2804 65.1318 44.2804 64.697C44.2804 64.2621 43.9197 63.9015 43.4849 63.9015H42.1591V61.25H49.0531V80.8712ZM50.644 75.5682V66.553H66.0228V75.5682H50.644ZM62.841 101.023H58.0682V99.4318H62.841V101.023ZM98.9016 101.023H94.1288V99.4318H98.9016V101.023ZM102.083 97.8409H50.9091C48.4273 97.8409 46.4016 95.8151 46.4016 93.3333C46.4016 90.8515 48.4273 88.8257 50.9091 88.8257H61.5152C64.8773 88.8257 67.6137 86.0894 67.6137 82.7273V61.5151C67.6137 59.0333 69.6394 57.0076 72.1213 57.0076H97.5758C100.058 57.0076 102.083 59.0333 102.083 61.5151V97.8409Z" fill="#28285A"/>
<path d="M93.3333 59.6591C89.9712 59.6591 87.2349 62.3954 87.2349 65.7575C87.2349 67.4439 87.9243 68.9606 89.0273 70.0636C90.1303 71.1666 91.6576 71.8454 93.3333 71.8454C96.6955 71.8454 99.4318 69.1091 99.4318 65.7469C99.4318 62.3848 96.6955 59.6591 93.3333 59.6591ZM93.3333 61.25C94.2879 61.25 95.1788 61.5575 95.9106 62.0666L89.6424 68.3348C89.1333 67.603 88.8258 66.7227 88.8258 65.7575C88.8258 63.2757 90.8515 61.25 93.3333 61.25ZM93.3333 70.2651C92.3788 70.2651 91.4985 69.9575 90.7667 69.4591L97.0349 63.1909C97.544 63.9227 97.8409 64.803 97.8409 65.7575C97.8409 68.2394 95.8152 70.2651 93.3333 70.2651Z" fill="#28285A"/>
<path d="M93.3333 74.5076C89.9712 74.5076 87.2349 77.2439 87.2349 80.6061C87.2349 82.2818 87.9136 83.8091 89.0273 84.9121C89.0273 84.9121 89.0273 84.9121 89.0379 84.9121C90.1409 86.0151 91.6576 86.6939 93.344 86.6939C96.7061 86.6939 99.4424 83.9576 99.4424 80.5954C99.4318 77.2439 96.6955 74.5076 93.3333 74.5076ZM93.3333 76.0985C94.2879 76.0985 95.1788 76.4061 95.9106 76.9151L89.6424 83.1833C89.1333 82.4515 88.8258 81.5712 88.8258 80.6167C88.8258 78.1242 90.8515 76.0985 93.3333 76.0985ZM93.3333 85.1136C92.3788 85.1136 91.4985 84.8061 90.7667 84.3076L97.0349 78.0394C97.544 78.7712 97.8409 79.6515 97.8409 80.6061C97.8409 83.0879 95.8152 85.1136 93.3333 85.1136Z" fill="#28285A"/>
</svg>
