<svg width="140" height="140" viewBox="0 0 140 140" fill="none" xmlns="http://www.w3.org/2000/svg">
<circle cx="70" cy="70" r="70" fill="white"/>
<path d="M37.1875 95.1562C37.1898 97.1861 37.9972 99.1322 39.4325 100.568C40.8678 102.003 42.8139 102.81 44.8438 102.812H68.9062C70.9361 102.81 72.8822 102.003 74.3175 100.568C75.7528 99.1322 76.5602 97.1861 76.5625 95.1562C76.5625 94.8662 76.4473 94.588 76.2421 94.3829C76.037 94.1777 75.7588 94.0625 75.4688 94.0625H74.2573C74.9872 93.3511 75.5673 92.5006 75.9632 91.5614C76.3592 90.6221 76.5629 89.613 76.5625 88.5938C76.5625 88.3037 76.4473 88.0255 76.2421 87.8204C76.037 87.6152 75.7588 87.5 75.4688 87.5H74.2573C74.9872 86.7886 75.5673 85.9381 75.9632 84.9989C76.3592 84.0596 76.5629 83.0505 76.5625 82.0312C76.5625 81.7412 76.4473 81.463 76.2421 81.2579C76.037 81.0527 75.7588 80.9375 75.4688 80.9375H74.2573C74.9872 80.2261 75.5673 79.3756 75.9632 78.4364C76.3592 77.4971 76.5629 76.488 76.5625 75.4688C76.5625 75.1787 76.4473 74.9005 76.2421 74.6954C76.037 74.4902 75.7588 74.375 75.4688 74.375H68.2023C68.5748 73.6871 68.747 72.9086 68.6995 72.1278L67.8408 57.9435C68.5117 57.434 69.0557 56.7763 69.4303 56.0217C69.8049 55.2672 69.9999 54.4362 70 53.5938V43.75H67.8125V53.5938C67.8125 54.464 67.4668 55.2986 66.8514 55.9139C66.2361 56.5293 65.4015 56.875 64.5312 56.875C63.661 56.875 62.8264 56.5293 62.2111 55.9139C61.5957 55.2986 61.25 54.464 61.25 53.5938V43.75H59.0625V53.5938C59.0626 54.4364 59.2576 55.2677 59.6323 56.0225C60.0071 56.7773 60.5514 57.4351 61.2227 57.9445L60.3627 72.1257C60.3151 72.9072 60.4874 73.6865 60.8602 74.375H53.9804C54.3543 73.6893 54.5279 72.9124 54.4815 72.1328L53.658 55.8086C55.6322 54.4429 56.875 51.9363 56.875 49.2188C56.875 44.997 53.9312 41.5625 50.3125 41.5625C46.6938 41.5625 43.75 44.997 43.75 49.2188C43.75 51.9363 44.9928 54.4429 46.967 55.8086L46.1444 72.1191C46.0964 72.9031 46.2698 73.6848 46.6447 74.375H38.2813C37.9912 74.375 37.713 74.4902 37.5079 74.6954C37.3027 74.9005 37.1875 75.1787 37.1875 75.4688C37.1871 76.488 37.3908 77.4971 37.7868 78.4364C38.1827 79.3756 38.7628 80.2261 39.4927 80.9375H38.2813C37.9912 80.9375 37.713 81.0527 37.5079 81.2579C37.3027 81.463 37.1875 81.7412 37.1875 82.0312C37.1871 83.0505 37.3908 84.0596 37.7868 84.9989C38.1827 85.9381 38.7628 86.7886 39.4927 87.5H38.2813C37.9912 87.5 37.713 87.6152 37.5079 87.8204C37.3027 88.0255 37.1875 88.3037 37.1875 88.5938C37.1871 89.613 37.3908 90.6221 37.7868 91.5614C38.1827 92.5006 38.7628 93.3511 39.4927 94.0625H38.2813C37.9912 94.0625 37.713 94.1777 37.5079 94.3829C37.3027 94.588 37.1875 94.8662 37.1875 95.1562ZM45.9375 49.2188C45.9375 46.2033 47.9001 43.75 50.3125 43.75C52.7249 43.75 54.6875 46.2033 54.6875 49.2188C54.6875 51.4095 53.6396 53.3848 52.0178 54.251C51.8347 54.3487 51.6833 54.4965 51.5811 54.6771C51.4788 54.8577 51.4301 55.0636 51.4406 55.2709L52.2975 72.2559C52.3143 72.5274 52.2752 72.7996 52.1826 73.0554C52.09 73.3113 51.9459 73.5454 51.7592 73.7433C51.5725 73.9413 51.3471 74.0988 51.0971 74.2061C50.8471 74.3135 50.5777 74.3684 50.3056 74.3674C50.0335 74.3665 49.7645 74.3098 49.5152 74.2007C49.266 74.0916 49.0417 73.9326 48.8564 73.7333C48.671 73.5341 48.5285 73.299 48.4377 73.0425C48.3469 72.786 48.3096 72.5136 48.3283 72.2422L49.1844 55.2705C49.1949 55.0632 49.1462 54.8573 49.044 54.6767C48.9417 54.4961 48.7903 54.3483 48.6072 54.2505C46.9854 53.3848 45.9375 51.4095 45.9375 49.2188ZM63.082 73.7479C62.895 73.5503 62.7508 73.3161 62.6587 73.06C62.5666 72.804 62.5285 72.5316 62.5468 72.2601L63.3551 58.9337C64.1305 59.1057 64.9342 59.1057 65.7096 58.9337L66.5163 72.2626C66.5415 72.6709 66.4403 73.077 66.2263 73.4257C66.0124 73.7744 65.6961 74.0486 65.3206 74.211C64.9452 74.3734 64.5288 74.416 64.1282 74.3332C63.7276 74.2503 63.3623 74.0459 63.082 73.7479ZM39.4844 76.5625H74.2656C74.0118 77.7969 73.3401 78.9061 72.3639 79.703C71.3876 80.4999 70.1665 80.9359 68.9062 80.9375H44.8438C43.5835 80.9359 42.3624 80.4999 41.3861 79.703C40.4099 78.9061 39.7382 77.7969 39.4844 76.5625ZM39.4844 83.125H74.2656C74.0118 84.3594 73.3401 85.4686 72.3639 86.2655C71.3876 87.0624 70.1665 87.4984 68.9062 87.5H44.8438C43.5835 87.4984 42.3624 87.0624 41.3861 86.2655C40.4099 85.4686 39.7382 84.3594 39.4844 83.125ZM39.4844 89.6875H74.2656C74.0118 90.9219 73.3401 92.0311 72.3639 92.828C71.3876 93.6249 70.1665 94.0609 68.9062 94.0625H44.8438C43.5835 94.0609 42.3624 93.6249 41.3861 92.828C40.4099 92.0311 39.7382 90.9219 39.4844 89.6875ZM44.8438 96.25H74.2656C74.0118 97.4844 73.3401 98.5936 72.3639 99.3905C71.3876 100.187 70.1665 100.623 68.9062 100.625H44.8438C43.5835 100.623 42.3624 100.187 41.3861 99.3905C40.4099 98.5936 39.7382 97.4844 39.4844 96.25H44.8438Z" fill="#28285A"/>
<path d="M84.2187 63.4375C84.1005 63.4375 83.9819 63.4404 83.8633 63.4426L83.9662 63.1852L88.9998 61.1718C89.2028 61.0907 89.3768 60.9505 89.4993 60.7695C89.6219 60.5885 89.6874 60.3749 89.6874 60.1563C89.6874 59.9377 89.6219 59.7241 89.4993 59.5431C89.3768 59.3621 89.2028 59.2219 88.9998 59.1408L83.9662 57.1274L81.9529 52.0939C81.8717 51.8909 81.7316 51.7169 81.5506 51.5943C81.3696 51.4718 81.156 51.4062 80.9374 51.4062C80.7187 51.4062 80.5052 51.4718 80.3241 51.5943C80.1431 51.7169 80.003 51.8909 79.9218 52.0939L77.9085 57.1274L72.8749 59.1408C72.6719 59.2219 72.4979 59.3621 72.3754 59.5431C72.2528 59.7241 72.1873 59.9377 72.1873 60.1563C72.1873 60.3749 72.2528 60.5885 72.3754 60.7695C72.4979 60.9505 72.6719 61.0907 72.8749 61.1718L77.9085 63.1852L78.3837 64.3734C75.2943 65.3923 72.5274 67.2064 70.3612 69.6334L71.9909 71.0924C73.9329 68.9168 76.4213 67.3 79.1983 66.4097L79.9218 68.2187C80.003 68.4217 80.1431 68.5957 80.3241 68.7183C80.5052 68.8408 80.7187 68.9063 80.9374 68.9063C81.156 68.9063 81.3696 68.8408 81.5506 68.7183C81.7316 68.5957 81.8717 68.4217 81.9529 68.2187L82.971 65.6734C83.3857 65.6423 83.8031 65.625 84.2186 65.625C86.5897 65.6272 88.9322 66.1434 91.0846 67.1379C93.2371 68.1324 95.1484 69.5816 96.6869 71.3858C98.2255 73.1899 99.3546 75.3061 99.9967 77.5887C100.639 79.8712 100.778 82.2657 100.406 84.6074C100.034 86.9491 99.1584 89.1823 97.8401 91.1531C96.5217 93.1239 94.7919 94.7856 92.7697 96.0236C90.7475 97.2616 88.4809 98.0466 86.1262 98.3245C83.7714 98.6024 81.3844 98.3665 79.1295 97.6332L78.4515 99.7131C80.3139 100.319 82.2603 100.627 84.2187 100.625C94.4713 100.625 102.812 92.2838 102.812 82.0313C102.812 71.7788 94.4713 63.4375 84.2187 63.4375ZM80.9375 64.8675L79.7655 61.9376C79.7105 61.8001 79.6281 61.6752 79.5234 61.5704C79.4186 61.4657 79.2937 61.3833 79.1562 61.3283L76.2263 60.1563L79.1562 58.9843C79.2937 58.9293 79.4186 58.8469 79.5234 58.7422C79.6281 58.6374 79.7105 58.5125 79.7655 58.375L80.9375 55.4451L82.1094 58.375C82.1645 58.5125 82.2469 58.6374 82.3516 58.7422C82.4564 58.8469 82.5813 58.9293 82.7188 58.9843L85.6487 60.1563L82.7188 61.3283C82.5813 61.3833 82.4564 61.4657 82.3516 61.5704C82.2469 61.6752 82.1645 61.8001 82.1094 61.9376L80.9375 64.8675Z" fill="#28285A"/>
<path d="M84.2188 91.875C82.4952 91.8759 80.8017 91.424 79.3077 90.5646L78.2148 92.4594C80.0908 93.5391 82.2234 94.0927 84.3877 94.0619C86.5521 94.0311 88.668 93.4169 90.5125 92.2842C92.357 91.1514 93.8617 89.542 94.8681 87.6257C95.8745 85.7093 96.3453 83.5569 96.2307 81.3954C96.1162 79.2338 95.4207 77.1432 94.2175 75.3439C93.0142 73.5446 91.3478 72.1032 89.394 71.1717C87.4401 70.2402 85.2711 69.853 83.1157 70.0511C80.9602 70.2491 78.898 71.025 77.1466 72.2969L78.4338 74.0656C79.6907 73.1531 81.1457 72.5509 82.6799 72.3083C84.2141 72.0657 85.7839 72.1896 87.261 72.6699C88.7382 73.1502 90.0807 73.9732 91.1788 75.0717C92.277 76.1701 93.0996 77.5129 93.5794 78.9902C94.0593 80.4674 94.1828 82.0373 93.9398 83.5714C93.6967 85.1055 93.0941 86.5603 92.1812 87.817C91.2683 89.0736 90.0709 90.0964 88.6871 90.8017C87.3032 91.507 85.772 91.8748 84.2188 91.875Z" fill="#28285A"/>
<path d="M65.625 43.75H63.4375V52.5H65.625V43.75Z" fill="#28285A"/>
<path d="M102.065 48.1811L96.0209 46.1666L94.0064 40.1229C93.9339 39.905 93.7946 39.7155 93.6084 39.5813C93.4221 39.447 93.1983 39.3748 92.9687 39.3748C92.7391 39.3748 92.5154 39.447 92.3291 39.5813C92.1429 39.7155 92.0036 39.905 91.9311 40.1229L89.9166 46.1666L83.8728 48.1811C83.655 48.2536 83.4655 48.3929 83.3313 48.5791C83.197 48.7654 83.1248 48.9892 83.1248 49.2187C83.1248 49.4483 83.197 49.6721 83.3313 49.8584C83.4655 50.0446 83.655 50.1839 83.8728 50.2564L89.9166 52.2709L91.9311 58.3146C92.0036 58.5325 92.1429 58.722 92.3291 58.8562C92.5154 58.9905 92.7391 59.0627 92.9687 59.0627C93.1983 59.0627 93.4221 58.9905 93.6084 58.8562C93.7946 58.722 93.9339 58.5325 94.0064 58.3146L96.0209 52.2709L102.065 50.2564C102.282 50.1839 102.472 50.0446 102.606 49.8584C102.74 49.6721 102.813 49.4483 102.813 49.2187C102.813 48.9892 102.74 48.7654 102.606 48.5791C102.472 48.3929 102.282 48.2536 102.065 48.1811ZM94.8103 50.3686C94.6493 50.4222 94.5029 50.5127 94.3828 50.6328C94.2627 50.7529 94.1722 50.8993 94.1186 51.0604L92.9687 54.5098L91.8189 51.0601C91.7652 50.899 91.6748 50.7526 91.5547 50.6325C91.4346 50.5124 91.2882 50.422 91.1271 50.3683L87.6777 49.2187L91.1274 48.0689C91.2885 48.0153 91.4349 47.9248 91.555 47.8047C91.6751 47.6846 91.7655 47.5382 91.8192 47.3771L92.9687 43.9277L94.1186 47.3774C94.1722 47.5385 94.2627 47.6849 94.3828 47.805C94.5029 47.9251 94.6493 48.0155 94.8103 48.0692L98.2598 49.2187L94.8103 50.3686Z" fill="#28285A"/>
</svg>
