<svg width="140" height="140" viewBox="0 0 140 140" fill="none" xmlns="http://www.w3.org/2000/svg">
<circle cx="70" cy="70" r="70" fill="white"/>
<path d="M57.3744 55.761H82.6256C82.852 55.761 83.0691 55.6711 83.2292 55.511C83.3893 55.3509 83.4793 55.1338 83.4793 54.9074V40.7793C83.4793 40.5529 83.3893 40.3358 83.2292 40.1757C83.0691 40.0156 82.852 39.9257 82.6256 39.9257H57.3744C57.148 39.9257 56.9308 40.0156 56.7708 40.1757C56.6107 40.3358 56.5207 40.5529 56.5207 40.7793V54.9074C56.5207 55.1338 56.6107 55.3509 56.7708 55.511C56.9308 55.6711 57.148 55.761 57.3744 55.761ZM58.228 41.633H81.7719V54.0537H58.228V41.633Z" fill="#28285A"/>
<path d="M83.4793 95.0463V60.1402C83.4793 59.9138 83.3893 59.6966 83.2292 59.5365C83.0691 59.3764 82.852 59.2865 82.6256 59.2865H57.3744C57.148 59.2865 56.9308 59.3764 56.7708 59.5365C56.6107 59.6966 56.5207 59.9138 56.5207 60.1402V95.0463C56.5207 95.2727 56.6107 95.4898 56.7708 95.6499C56.9308 95.81 57.148 95.8999 57.3744 95.8999H82.6256C82.852 95.8999 83.0691 95.81 83.2292 95.6499C83.3893 95.4898 83.4793 95.2727 83.4793 95.0463ZM81.7719 94.1926H58.228V60.9938H81.7719V94.1926Z" fill="#28285A"/>
<path d="M61.028 75.9756H61.1732L65.7317 75.1219L68.1646 76.4195L65.7744 77.6914L61.1646 76.8377C60.9382 76.797 60.7049 76.8478 60.516 76.9791C60.3271 77.1104 60.1981 77.3113 60.1573 77.5377C60.1166 77.7642 60.1674 77.9975 60.2987 78.1864C60.43 78.3753 60.6309 78.5043 60.8573 78.5451L63.35 79.006L62.0695 79.689C61.8692 79.7943 61.7189 79.9749 61.6517 80.191C61.5844 80.4071 61.6058 80.641 61.711 80.8414C61.7842 80.979 61.8938 81.0939 62.0277 81.1737C62.1616 81.2534 62.3149 81.295 62.4707 81.2938C62.6108 81.2931 62.7486 81.258 62.872 81.1914L64.1012 80.5341L63.1024 82.7451C63.0554 82.8476 63.0291 82.9584 63.0251 83.0711C63.0211 83.1838 63.0394 83.2962 63.0791 83.4017C63.1188 83.5073 63.179 83.604 63.2563 83.6861C63.3336 83.7683 63.4263 83.8343 63.5293 83.8804C63.6398 83.9276 63.7591 83.9508 63.8793 83.9487C64.0425 83.9491 64.2025 83.9027 64.3402 83.8149C64.4779 83.7272 64.5875 83.6018 64.6561 83.4536L66.5854 79.2365L69.1463 77.8451V80.739L66.2354 84.4097C66.095 84.5874 66.031 84.8136 66.0574 85.0386C66.0838 85.2635 66.1985 85.4687 66.3762 85.6091C66.5539 85.7495 66.7802 85.8135 67.0051 85.7871C67.23 85.7606 67.4352 85.646 67.5756 85.4682L69.1463 83.4878V84.939C69.1463 85.1654 69.2363 85.3825 69.3964 85.5426C69.5565 85.7027 69.7736 85.7926 70 85.7926C70.2264 85.7926 70.4435 85.7027 70.6036 85.5426C70.7637 85.3825 70.8537 85.1654 70.8537 84.939V83.539L72.3305 85.4597C72.4109 85.5642 72.5144 85.6486 72.6329 85.7063C72.7514 85.7641 72.8816 85.7936 73.0134 85.7926C73.202 85.792 73.3851 85.729 73.5341 85.6134C73.7126 85.475 73.829 85.2715 73.8578 85.0475C73.8866 84.8235 73.8255 84.5973 73.6878 84.4182L70.8537 80.7475V77.8963L73.4146 79.2365L75.3268 83.4621C75.3954 83.6103 75.505 83.7357 75.6427 83.8235C75.7804 83.9112 75.9404 83.9577 76.1037 83.9573C76.2238 83.9594 76.3431 83.9361 76.4537 83.889C76.5566 83.8429 76.6494 83.7768 76.7266 83.6947C76.8039 83.6125 76.8641 83.5158 76.9038 83.4103C76.9435 83.3047 76.9619 83.1923 76.9579 83.0796C76.9539 82.9669 76.9276 82.8561 76.8805 82.7536L75.8817 80.5426L77.111 81.1999C77.2343 81.2665 77.3721 81.3017 77.5122 81.3024C77.6681 81.3035 77.8213 81.262 77.9552 81.1822C78.0892 81.1024 78.1987 80.9875 78.2719 80.8499C78.3772 80.6496 78.3985 80.4156 78.3313 80.1995C78.264 79.9834 78.1137 79.8028 77.9134 79.6975L76.6329 79.0146L79.1256 78.5365C79.352 78.4958 79.553 78.3668 79.6842 78.1778C79.8155 77.9889 79.8664 77.7556 79.8256 77.5292C79.7849 77.3028 79.6558 77.1019 79.4669 76.9706C79.278 76.8393 79.0447 76.7885 78.8183 76.8292L74.2085 77.6829L71.8183 76.4109L74.2683 75.1219L78.8439 75.8987H78.989C79.2154 75.9168 79.4398 75.8443 79.6127 75.697C79.7856 75.5497 79.8929 75.3398 79.911 75.1134C79.9291 74.887 79.8565 74.6626 79.7092 74.4897C79.562 74.3168 79.352 74.2095 79.1256 74.1914L76.7354 73.7902L77.9732 73.1329C78.1108 73.0596 78.2257 72.9501 78.3054 72.8161C78.3852 72.6822 78.4267 72.529 78.4256 72.3731C78.4128 72.2308 78.3645 72.094 78.2852 71.9752C78.2058 71.8564 78.0979 71.7594 77.9713 71.6932C77.8447 71.6269 77.7035 71.5935 77.5607 71.5959C77.4178 71.5984 77.2779 71.6367 77.1537 71.7073L75.8732 72.3902L76.889 70.0768C76.9796 69.8685 76.9837 69.6327 76.9004 69.4214C76.8172 69.2101 76.6534 69.0405 76.4451 68.9499C76.2368 68.8594 76.0011 68.8553 75.7898 68.9385C75.5784 69.0218 75.4089 69.1856 75.3183 69.3938L73.4488 73.6621L70.8878 75.028V72.0573L73.722 68.3865C73.8601 68.2065 73.921 67.9791 73.8914 67.7541C73.8618 67.5292 73.744 67.3252 73.564 67.1871C73.384 67.049 73.1566 66.9881 72.9316 67.0177C72.7067 67.0473 72.5027 67.1651 72.3646 67.3451L70.8878 69.2658V67.8658C70.8878 67.6394 70.7979 67.4223 70.6378 67.2622C70.4777 67.1021 70.2606 67.0121 70.0341 67.0121C69.8077 67.0121 69.5906 67.1021 69.4305 67.2622C69.2704 67.4223 69.1805 67.6394 69.1805 67.8658V69.317L67.6098 67.3365C67.4694 67.1588 67.2642 67.0441 67.0392 67.0177C66.8143 66.9913 66.5881 67.0553 66.4104 67.1957C66.2326 67.336 66.118 67.5413 66.0915 67.7662C66.0651 67.9911 66.1291 68.2173 66.2695 68.3951L69.1805 72.0658V75.0536L66.5854 73.6451L64.7159 69.3768C64.6253 69.1685 64.4557 69.0047 64.2444 68.9214C64.033 68.8382 63.7973 68.8423 63.589 68.9329C63.3807 69.0234 63.2169 69.193 63.1337 69.4043C63.0504 69.6157 63.0546 69.8514 63.1451 70.0597L64.161 72.3731L62.8805 71.6902C62.6801 71.5838 62.4457 71.5613 62.2288 71.6278C62.0118 71.6942 61.8302 71.8441 61.7238 72.0445C61.6174 72.2448 61.5949 72.4793 61.6613 72.6962C61.7278 72.9131 61.8777 73.0948 62.078 73.2012L63.3158 73.8585L60.9256 74.2597C60.6992 74.2778 60.4893 74.3851 60.342 74.558C60.1947 74.7309 60.1221 74.9552 60.1402 75.1816C60.1584 75.4081 60.2657 75.618 60.4386 75.7653C60.6115 75.9126 60.8358 75.9851 61.0622 75.967L61.028 75.9756Z" fill="#28285A"/>
<path d="M80.5768 105H84.6658C84.8923 105 85.1094 104.91 85.2695 104.75C85.4296 104.59 85.5195 104.373 85.5195 104.146V100.732H87.0732C87.2996 100.732 87.5167 100.642 87.6768 100.482C87.8369 100.322 87.9268 100.104 87.9268 99.8781V38.5171C87.9246 37.585 87.5533 36.6917 86.8942 36.0326C86.2351 35.3735 85.3418 35.0023 84.4097 35H55.5902C54.6581 35.0023 53.7649 35.3735 53.1058 36.0326C52.4467 36.6917 52.0754 37.585 52.0732 38.5171V99.8781C52.0732 100.104 52.1631 100.322 52.3232 100.482C52.4833 100.642 52.7004 100.732 52.9268 100.732H54.4805V104.146C54.4805 104.373 54.5704 104.59 54.7305 104.75C54.8906 104.91 55.1077 105 55.3341 105H59.4232C59.6496 105 59.8667 104.91 60.0268 104.75C60.1869 104.59 60.2768 104.373 60.2768 104.146V100.732H79.7232V104.146C79.7232 104.373 79.8131 104.59 79.9732 104.75C80.1333 104.91 80.3504 105 80.5768 105ZM83.8122 103.293H81.4305V100.732H83.8122V103.293ZM58.5695 103.293H56.1878V100.732H58.5695V103.293ZM59.4232 99.0244H53.7805V38.5171C53.7805 38.0371 53.9712 37.5768 54.3105 37.2374C54.6499 36.898 55.1103 36.7073 55.5902 36.7073H84.4097C84.8897 36.7073 85.35 36.898 85.6894 37.2374C86.0288 37.5768 86.2195 38.0371 86.2195 38.5171V99.0244H59.4232Z" fill="#28285A"/>
</svg>
