<svg width="140" height="140" viewBox="0 0 140 140" fill="none" xmlns="http://www.w3.org/2000/svg">
<circle cx="70" cy="70" r="70" fill="white"/>
<path d="M40.7422 53.0469H44.5703C45.5162 53.0556 46.4204 53.4375 47.0861 54.1096C47.7518 54.7816 48.1252 55.6894 48.125 56.6353V92.4146C47.0637 92.6866 46.1384 93.3371 45.5233 94.2438C44.9083 95.1505 44.6459 96.2507 44.7856 97.3374C44.9252 98.424 45.4573 99.4222 46.2817 100.144C47.106 100.865 48.1657 101.261 49.2613 101.256C50.3569 101.25 51.4128 100.845 52.2301 100.115C53.0475 99.3856 53.57 98.3824 53.6992 97.2945C53.8284 96.2065 53.5554 95.1089 52.9316 94.2082C52.3079 93.3074 51.3764 92.6658 50.3125 92.4041V82.5762C51.0118 83.2763 51.8434 83.8303 52.7587 84.2062C53.6741 84.5821 54.655 84.7722 55.6445 84.7656H94.7461V92.4139C93.6848 92.6859 92.7595 93.3365 92.1444 94.2431C91.5294 95.1498 91.267 96.25 91.4066 97.3367C91.5463 98.4234 92.0784 99.4215 92.9028 100.143C93.7271 100.865 94.7868 101.26 95.8824 101.255C96.978 101.25 98.0339 100.844 98.8512 100.115C99.6686 99.385 100.191 98.3818 100.32 97.2938C100.449 96.2058 100.176 95.1082 99.5527 94.2075C98.929 93.3068 97.9975 92.6651 96.9336 92.4034V62.9244C96.9348 62.6308 96.8211 62.3484 96.6166 62.1376C96.4122 61.9269 96.1334 61.8046 95.8398 61.7969H82.3047V59.3344C83.3188 59.1133 84.25 58.6104 84.9911 57.8837C85.9835 56.8928 86.5418 55.5483 86.543 54.1458V49.7018C86.543 49.0978 86.0072 48.6719 85.4031 48.6719H77.0049C76.4009 48.6719 75.8789 49.0978 75.8789 49.7018V54.1458C75.8757 55.3675 76.2964 56.5524 77.0693 57.4985C77.8422 58.4446 78.9194 59.0932 80.1172 59.3338V61.7969H71.2305V56.8765C71.2373 55.7671 70.9795 54.6721 70.4785 53.6823L67.7219 48.2917C67.5944 48.0286 67.5317 47.7387 67.5391 47.4465V40.577C67.5361 40.0842 67.3415 39.6119 66.9964 39.26C66.6514 38.908 66.183 38.7041 65.6904 38.6914H62.3238C61.8263 38.7024 61.3522 38.9043 60.9995 39.2553C60.6469 39.6064 60.4429 40.0796 60.4297 40.577V47.4853C60.4406 47.7614 60.3888 48.0363 60.2782 48.2895L57.668 53.7608C57.2234 54.7113 56.999 55.75 57.0117 56.7993V61.7969H50.3125V56.6353C50.3121 55.1094 49.7081 53.6456 48.6322 52.5635C47.5564 51.4813 46.0962 50.8687 44.5703 50.8594H40.7422C40.4521 50.8594 40.1739 50.9746 39.9688 51.1797C39.7637 51.3848 39.6484 51.663 39.6484 51.9531C39.6484 52.2432 39.7637 52.5214 39.9688 52.7265C40.1739 52.9316 40.4521 53.0469 40.7422 53.0469ZM51.543 96.7623C51.543 97.2175 51.408 97.6625 51.1551 98.041C50.9023 98.4195 50.5428 98.7145 50.1223 98.8887C49.7017 99.0629 49.2389 99.1085 48.7925 99.0197C48.346 98.9309 47.9359 98.7117 47.614 98.3899C47.2921 98.068 47.0729 97.6579 46.9841 97.2114C46.8953 96.7649 46.9409 96.3022 47.1151 95.8816C47.2894 95.4611 47.5844 95.1016 47.9629 94.8487C48.3414 94.5958 48.7864 94.4609 49.2416 94.4609C49.8517 94.4616 50.4367 94.7043 50.8681 95.1357C51.2996 95.5672 51.5423 96.1521 51.543 96.7623ZM78.0664 54.1458V50.8594H84.3555V54.1543C84.3523 54.9764 84.0228 55.7637 83.4395 56.343C83.0004 56.7799 82.4423 57.0777 81.8349 57.1992C81.2275 57.3207 80.5977 57.2604 80.0244 57.0259C79.4511 56.7915 78.9596 56.3932 78.6113 55.881C78.2631 55.3687 78.0735 54.7652 78.0664 54.1458ZM55.6445 82.5781C54.9463 82.5811 54.2544 82.4464 53.6083 82.1816C52.9622 81.9168 52.3747 81.5272 51.8795 81.0351C51.3842 80.5429 50.9908 79.9579 50.722 79.3135C50.4531 78.6692 50.3139 77.9781 50.3125 77.2799V76.5625H94.7461V82.5781H55.6445ZM98.1641 96.7623C98.1641 97.2175 98.0291 97.6625 97.7762 98.041C97.5234 98.4195 97.1639 98.7145 96.7434 98.8887C96.3228 99.0629 95.86 99.1085 95.4136 99.0197C94.9671 98.9309 94.557 98.7117 94.2351 98.3899C93.9132 98.068 93.694 97.6579 93.6052 97.2114C93.5164 96.7649 93.562 96.3022 93.7362 95.8816C93.9104 95.4611 94.2055 95.1016 94.584 94.8487C94.9625 94.5958 95.4075 94.4609 95.8627 94.4609C96.4728 94.4616 97.0578 94.7043 97.4892 95.1357C97.9207 95.5672 98.1634 96.1521 98.1641 96.7623ZM65.3516 40.8789V47.0313H62.6172V40.8789H65.3516ZM59.6535 54.6973L62.2754 49.2188H65.7602C65.767 49.2188 65.7729 49.2636 65.7799 49.2771L68.5355 54.6766C68.8767 55.3593 69.0506 56.1134 69.043 56.8766V57.1484H59.1992V56.7993C59.1918 56.0735 59.3471 55.3553 59.6535 54.6973ZM59.1992 59.3359H69.043V61.7969H59.1992V59.3359ZM94.7461 63.9844V74.375H50.3125V63.9844H94.7461Z" fill="#28285A"/>
</svg>
