<svg width="140" height="140" viewBox="0 0 140 140" fill="none" xmlns="http://www.w3.org/2000/svg">
<circle cx="70" cy="70" r="70" fill="white"/>
<path d="M97.3438 39.375H42.6562C41.2064 39.3767 39.8164 39.9535 38.7912 40.9787C37.766 42.0039 37.1892 43.3939 37.1875 44.8438V95.1562C37.1892 96.6061 37.766 97.9961 38.7912 99.0213C39.8164 100.047 41.2064 100.623 42.6562 100.625H97.3438C98.7936 100.623 100.184 100.047 101.209 99.0213C102.234 97.9961 102.811 96.6061 102.812 95.1562V44.8438C102.811 43.3939 102.234 42.0039 101.209 40.9787C100.184 39.9535 98.7936 39.3767 97.3438 39.375ZM100.625 95.1562C100.625 96.0265 100.279 96.8611 99.6639 97.4764C99.0486 98.0918 98.214 98.4375 97.3438 98.4375H42.6562C41.786 98.4375 40.9514 98.0918 40.3361 97.4764C39.7207 96.8611 39.375 96.0265 39.375 95.1562V44.8438C39.375 43.9735 39.7207 43.1389 40.3361 42.5236C40.9514 41.9082 41.786 41.5625 42.6562 41.5625H97.3438C98.214 41.5625 99.0486 41.9082 99.6639 42.5236C100.279 43.1389 100.625 43.9735 100.625 44.8438V95.1562Z" fill="#28285A"/>
<path d="M82.0312 44.8438H66.7188C66.4287 44.8438 66.1505 44.959 65.9454 45.1641C65.7402 45.3692 65.625 45.6474 65.625 45.9375V65.625C65.625 65.9151 65.7402 66.1933 65.9454 66.3984C66.1505 66.6035 66.4287 66.7188 66.7188 66.7188H82.0312C82.3213 66.7188 82.5995 66.6035 82.8046 66.3984C83.0098 66.1933 83.125 65.9151 83.125 65.625V45.9375C83.125 45.6474 83.0098 45.3692 82.8046 45.1641C82.5995 44.959 82.3213 44.8438 82.0312 44.8438ZM80.9375 64.5312H67.8125V47.0312H80.9375V64.5312Z" fill="#28285A"/>
<path d="M82.0312 68.9062H42.6562C42.3662 68.9062 42.088 69.0215 41.8829 69.2266C41.6777 69.4317 41.5625 69.7099 41.5625 70V94.0625C41.5625 94.3526 41.6777 94.6308 41.8829 94.8359C42.088 95.041 42.3662 95.1562 42.6562 95.1562H82.0312C82.3213 95.1562 82.5995 95.041 82.8046 94.8359C83.0098 94.6308 83.125 94.3526 83.125 94.0625V70C83.125 69.7099 83.0098 69.4317 82.8046 69.2266C82.5995 69.0215 82.3213 68.9062 82.0312 68.9062ZM80.9375 92.9688H43.75V71.0938H80.9375V92.9688Z" fill="#28285A"/>
<path d="M91.875 48.125C88.2558 48.125 85.3125 52.0505 85.3125 56.875C85.2564 58.2812 85.5116 59.6825 86.0599 60.9786C86.6082 62.2747 87.4361 63.4337 88.4844 64.3727L87.5854 89.5705C87.5696 90.0111 87.6429 90.4504 87.8007 90.8621C87.9586 91.2738 88.1978 91.6495 88.504 91.9667C88.8103 92.2839 89.1774 92.5361 89.5833 92.7083C89.9892 92.8804 90.4257 92.969 90.8666 92.9688H92.8944C93.3353 92.969 93.7718 92.8804 94.1777 92.7083C94.5837 92.5361 94.9507 92.2839 95.257 91.9667C95.5633 91.6495 95.8025 91.2738 95.9603 90.8621C96.1181 90.4504 96.1914 90.0111 96.1757 89.5705L95.2657 64.3727C96.3139 63.4337 97.1418 62.2747 97.6902 60.9786C98.2385 59.6825 98.4937 58.2812 98.4375 56.875C98.4375 52.0505 95.4943 48.125 91.875 48.125ZM93.5627 62.9081C93.403 63.0107 93.2727 63.1531 93.1847 63.3213C93.0966 63.4894 93.0539 63.6776 93.0607 63.8673L93.9816 89.6481C93.9869 89.795 93.9625 89.9415 93.9099 90.0788C93.8573 90.2161 93.7776 90.3413 93.6755 90.4471C93.5734 90.5529 93.451 90.637 93.3157 90.6944C93.1804 90.7518 93.0349 90.7813 92.8879 90.7812H90.8611C90.7141 90.7813 90.5686 90.7518 90.4333 90.6944C90.2979 90.637 90.1756 90.5529 90.0735 90.4471C89.9714 90.3413 89.8917 90.2161 89.8391 90.0788C89.7865 89.9415 89.7621 89.795 89.7674 89.6481L90.6883 63.8673C90.6951 63.6776 90.6523 63.4894 90.5643 63.3213C90.4763 63.1531 90.346 63.0107 90.1863 62.9081C88.5544 61.857 87.5 59.4891 87.5 56.875C87.5 53.3181 89.5038 50.3125 91.875 50.3125C94.2463 50.3125 96.25 53.3181 96.25 56.875C96.25 59.4891 95.1957 61.857 93.5627 62.9081Z" fill="#28285A"/>
<path d="M72.1875 62.3438C72.4375 62.3413 72.679 62.2523 72.8709 62.092C73.0628 61.9317 73.1933 61.71 73.2402 61.4644C73.2872 61.2188 73.2477 60.9645 73.1285 60.7447C73.0092 60.5249 72.8176 60.3532 72.5861 60.2586C72.3546 60.1641 72.0976 60.1525 71.8586 60.226C71.6196 60.2995 71.4133 60.4534 71.2749 60.6616C71.1365 60.8699 71.0744 61.1196 71.0992 61.3684C71.124 61.6172 71.2341 61.8498 71.4109 62.0266C71.6206 62.2263 71.8979 62.3396 72.1875 62.3438Z" fill="#28285A"/>
<path d="M74.375 55.7813C75.024 55.7813 75.6584 55.5888 76.198 55.2283C76.7376 54.8677 77.1581 54.3553 77.4065 53.7557C77.6548 53.1561 77.7198 52.4964 77.5932 51.8599C77.4666 51.2234 77.1541 50.6387 76.6952 50.1798C76.2363 49.7209 75.6516 49.4084 75.0151 49.2818C74.3786 49.1552 73.7189 49.2202 73.1193 49.4685C72.5198 49.7169 72.0073 50.1374 71.6467 50.677C71.2862 51.2166 71.0938 51.851 71.0938 52.5C71.0938 53.3702 71.4395 54.2048 72.0548 54.8202C72.6702 55.4355 73.5048 55.7813 74.375 55.7813ZM74.375 51.4063C74.5913 51.4063 74.8028 51.4704 74.9827 51.5906C75.1625 51.7108 75.3027 51.8816 75.3855 52.0814C75.4683 52.2813 75.4899 52.5012 75.4477 52.7134C75.4055 52.9255 75.3014 53.1204 75.1484 53.2734C74.9954 53.4264 74.8005 53.5305 74.5884 53.5727C74.3762 53.6149 74.1563 53.5933 73.9564 53.5105C73.7566 53.4277 73.5858 53.2875 73.4656 53.1077C73.3454 52.9278 73.2812 52.7163 73.2812 52.5C73.2812 52.2099 73.3965 51.9317 73.6016 51.7266C73.8067 51.5215 74.0849 51.4063 74.375 51.4063Z" fill="#28285A"/>
<path d="M75.786 58.286C75.6317 58.4389 75.5265 58.6344 75.4838 58.8474C75.441 59.0604 75.4627 59.2813 75.546 59.4819C75.6293 59.6826 75.7705 59.8539 75.9515 59.974C76.1326 60.0941 76.3453 60.1575 76.5625 60.1563C76.8525 60.1541 77.1305 60.0405 77.3391 59.8391L77.4703 59.675C77.5118 59.6141 77.5449 59.5479 77.5688 59.4781C77.6004 59.4162 77.6225 59.3498 77.6344 59.2813C77.6471 59.209 77.6544 59.1359 77.6563 59.0625C77.6575 58.8453 77.5941 58.6326 77.474 58.4515C77.3539 58.2705 77.1826 58.1293 76.9819 58.046C76.7813 57.9627 76.5604 57.941 76.3474 57.9838C76.1344 58.0265 75.9389 58.1317 75.786 58.286Z" fill="#28285A"/>
<path d="M48.884 77.35C49.233 77.0295 49.4167 77.2143 49.5403 77.3357C49.7466 77.535 50.0229 77.6452 50.3096 77.6427C50.5964 77.6402 50.8707 77.5252 51.0735 77.3224C51.2763 77.1196 51.3914 76.8453 51.3938 76.5585C51.3963 76.2717 51.2861 75.9955 51.0869 75.7892C50.8471 75.5346 50.5577 75.3317 50.2367 75.1931C49.9156 75.0544 49.5696 74.9829 49.2198 74.9829C48.8701 74.9829 48.5241 75.0544 48.203 75.1931C47.8819 75.3317 47.5926 75.5346 47.3528 75.7892C47.1515 75.991 47.038 76.264 47.0368 76.5491C47.0355 76.8341 47.1467 77.1081 47.3462 77.3117C47.5472 77.5169 47.8202 77.6357 48.1074 77.6429C48.3945 77.65 48.6731 77.545 48.884 77.35Z" fill="#28285A"/>
<path d="M66.384 82.8187C66.733 82.4982 66.9167 82.6842 67.0403 82.8045C67.2466 83.0037 67.5229 83.114 67.8096 83.1115C68.0964 83.109 68.3707 82.9939 68.5735 82.7911C68.7763 82.5884 68.8914 82.314 68.8938 82.0273C68.8963 81.7405 68.7861 81.4642 68.5869 81.2579C68.347 81.0035 68.0576 80.8007 67.7366 80.6622C67.4155 80.5236 67.0695 80.4521 66.7198 80.4521C66.3701 80.4521 66.0241 80.5236 65.7031 80.6622C65.382 80.8007 65.0927 81.0035 64.8528 81.2579C64.6515 81.4597 64.538 81.7328 64.5368 82.0178C64.5355 82.3028 64.6467 82.5768 64.8462 82.7804C65.0473 82.9854 65.3203 83.1041 65.6074 83.1112C65.8945 83.1183 66.173 83.0134 66.384 82.8187Z" fill="#28285A"/>
<path d="M54.3528 86.1001C54.7006 85.7796 54.8855 85.9644 55.009 86.0858C55.2153 86.2851 55.4916 86.3953 55.7784 86.3928C56.0652 86.3903 56.3395 86.2753 56.5423 86.0725C56.7451 85.8697 56.8601 85.5954 56.8626 85.3086C56.8651 85.0218 56.7548 84.7456 56.5556 84.5393C56.3157 84.285 56.0263 84.0824 55.7052 83.9439C55.3842 83.8054 55.0382 83.734 54.6886 83.734C54.3389 83.734 53.993 83.8054 53.6719 83.9439C53.3509 84.0824 53.0615 84.285 52.8215 84.5393C52.6203 84.7411 52.5067 85.0141 52.5055 85.2992C52.5043 85.5842 52.6155 85.8582 52.815 86.0618C53.0161 86.2668 53.2891 86.3854 53.5761 86.3926C53.8632 86.3997 54.1418 86.2948 54.3528 86.1001Z" fill="#28285A"/>
<path d="M60.9153 76.2562C61.2642 75.9357 61.448 76.1206 61.5715 76.242C61.7778 76.4412 62.0541 76.5515 62.3409 76.549C62.6277 76.5465 62.902 76.4314 63.1048 76.2286C63.3076 76.0259 63.4226 75.7515 63.4251 75.4648C63.4276 75.178 63.3173 74.9017 63.1181 74.6954C62.8782 74.441 62.5889 74.2382 62.2678 74.0997C61.9468 73.9611 61.6008 73.8896 61.2511 73.8896C60.9014 73.8896 60.5554 73.9611 60.2343 74.0997C59.9133 74.2382 59.6239 74.441 59.384 74.6954C59.1828 74.8972 59.0692 75.1703 59.068 75.4553C59.0668 75.7403 59.178 76.0143 59.3775 76.2179C59.5786 76.4229 59.8516 76.5416 60.1386 76.5487C60.4257 76.5558 60.7043 76.4509 60.9153 76.2562Z" fill="#28285A"/>
<path d="M60.4767 87.8205C60.2754 88.0223 60.1619 88.2954 60.1607 88.5804C60.1594 88.8654 60.2706 89.1394 60.4701 89.343C60.6711 89.5486 60.9444 89.6676 61.2318 89.6748C61.5192 89.6819 61.7981 89.5766 62.009 89.3813C62.3579 89.0608 62.5417 89.2457 62.6653 89.3671C62.8716 89.5663 63.1479 89.6765 63.4346 89.6741C63.7214 89.6716 63.9957 89.5565 64.1985 89.3537C64.4013 89.151 64.5164 88.8766 64.5188 88.5898C64.5213 88.3031 64.4111 88.0268 64.2119 87.8205C63.972 87.5659 63.6825 87.363 63.3614 87.2244C63.0402 87.0857 62.6941 87.0142 62.3443 87.0142C61.9945 87.0142 61.6483 87.0857 61.3272 87.2244C61.006 87.363 60.7166 87.5659 60.4767 87.8205Z" fill="#28285A"/>
<path d="M74.0403 77.8357C74.3892 77.5163 74.573 77.7 74.6965 77.8214C74.9028 78.0207 75.1791 78.1309 75.4659 78.1284C75.7527 78.1259 76.027 78.0109 76.2298 77.8081C76.4326 77.6053 76.5476 77.331 76.5501 77.0442C76.5526 76.7574 76.4423 76.4812 76.2431 76.2749C76.0032 76.0204 75.7139 75.8177 75.3928 75.6792C75.0718 75.5406 74.7258 75.4691 74.3761 75.4691C74.0264 75.4691 73.6804 75.5406 73.3593 75.6792C73.0383 75.8177 72.7489 76.0204 72.509 76.2749C72.3078 76.4767 72.1942 76.7498 72.193 77.0348C72.1918 77.3198 72.303 77.5938 72.5025 77.7974C72.7034 78.0026 72.9765 78.1215 73.2636 78.1286C73.5508 78.1357 73.8294 78.0307 74.0403 77.8357Z" fill="#28285A"/>
<path d="M71.8528 87.6794C72.2017 87.36 72.3855 87.5438 72.509 87.6652C72.7153 87.8644 72.9916 87.9747 73.2784 87.9722C73.5652 87.9697 73.8395 87.8546 74.0423 87.6518C74.2451 87.4491 74.3601 87.1747 74.3626 86.888C74.3651 86.6012 74.2548 86.3249 74.0556 86.1186C73.8157 85.8643 73.5263 85.6617 73.2052 85.5233C72.8842 85.3848 72.5382 85.3134 72.1886 85.3134C71.8389 85.3134 71.493 85.3848 71.1719 85.5233C70.8509 85.6617 70.5615 85.8643 70.3215 86.1186C70.1203 86.3204 70.0067 86.5935 70.0055 86.8785C70.0043 87.1635 70.1155 87.4376 70.315 87.6411C70.5158 87.8466 70.7889 87.9656 71.0761 87.9728C71.3633 87.9799 71.642 87.8747 71.8528 87.6794Z" fill="#28285A"/>
<path d="M52.5 66.7188C54.6632 66.7188 56.7779 66.0773 58.5765 64.8755C60.3752 63.6736 61.7771 61.9654 62.6049 59.9669C63.4328 57.9683 63.6494 55.7691 63.2273 53.6475C62.8053 51.5258 61.7636 49.5769 60.234 48.0473C58.7043 46.5176 56.7555 45.4759 54.6338 45.0539C52.5121 44.6319 50.313 44.8485 48.3144 45.6763C46.3158 46.5042 44.6076 47.906 43.4058 49.7047C42.204 51.5034 41.5625 53.618 41.5625 55.7813C41.5657 58.6811 42.719 61.4612 44.7695 63.5117C46.82 65.5622 49.6002 66.7156 52.5 66.7188ZM52.5 47.0313C54.2306 47.0313 55.9223 47.5444 57.3612 48.5059C58.8002 49.4674 59.9217 50.8339 60.5839 52.4328C61.2462 54.0316 61.4195 55.791 61.0819 57.4883C60.7443 59.1856 59.9109 60.7447 58.6872 61.9684C57.4635 63.1922 55.9044 64.0255 54.207 64.3631C52.5097 64.7007 50.7504 64.5275 49.1515 63.8652C47.5527 63.2029 46.1861 62.0814 45.2246 60.6425C44.2632 59.2036 43.75 57.5118 43.75 55.7813C43.7526 53.4614 44.6753 51.2373 46.3157 49.5969C47.9561 47.9566 50.1802 47.0339 52.5 47.0313Z" fill="#28285A"/>
<path d="M52.5 62.3437C52.7901 62.3437 53.0683 62.2285 53.2734 62.0234C53.4785 61.8183 53.5938 61.5401 53.5938 61.25C53.5938 60.9599 53.4785 60.6817 53.2734 60.4766C53.0683 60.2715 52.7901 60.1562 52.5 60.1562C51.9193 60.1792 51.3402 60.0817 50.799 59.87C50.2578 59.6582 49.7663 59.3368 49.3554 58.9259C48.9445 58.5149 48.6231 58.0234 48.4113 57.4822C48.1996 56.9411 48.1021 56.3619 48.125 55.7812C48.125 55.4912 48.0098 55.213 47.8047 55.0079C47.5996 54.8027 47.3214 54.6875 47.0313 54.6875C46.7412 54.6875 46.463 54.8027 46.2579 55.0079C46.0528 55.213 45.9375 55.4912 45.9375 55.7812C45.9045 56.6519 46.0517 57.52 46.3698 58.3311C46.6879 59.1423 47.1701 59.879 47.7862 60.4951C48.4023 61.1111 49.139 61.5934 49.9501 61.9115C50.7613 62.2296 51.6294 62.3768 52.5 62.3437Z" fill="#28285A"/>
</svg>
