<svg width="140" height="140" viewBox="0 0 140 140" fill="none" xmlns="http://www.w3.org/2000/svg">
<circle cx="70" cy="70" r="70" fill="white"/>
<path d="M102.812 36.0938H88.5938C88.3037 36.0938 88.0255 36.209 87.8204 36.4141C87.6152 36.6192 87.5 36.8974 87.5 37.1875V40.4688H85.3125C85.083 40.4689 84.8594 40.5413 84.6734 40.6755C84.4873 40.8098 84.3481 40.9992 84.2756 41.2169L82.3364 47.0312H79.8438V45.9375C79.8438 45.6474 79.7285 45.3692 79.5234 45.1641C79.3183 44.959 79.0401 44.8438 78.75 44.8438H50.3125C50.0224 44.8438 49.7442 44.959 49.5391 45.1641C49.334 45.3692 49.2188 45.6474 49.2188 45.9375V67.8125C49.2188 68.6827 49.5645 69.5173 50.1798 70.1327C50.7952 70.748 51.6298 71.0938 52.5 71.0938H80.9375C81.8077 71.0938 82.6423 70.748 83.2577 70.1327C83.873 69.5173 84.2188 68.6827 84.2188 67.8125V48.3011L86.1011 42.6562H102.812C103.103 42.6562 103.381 42.541 103.586 42.3359C103.791 42.1308 103.906 41.8526 103.906 41.5625V37.1875C103.906 36.8974 103.791 36.6192 103.586 36.4141C103.381 36.209 103.103 36.0938 102.812 36.0938ZM77.6562 68.9062H52.5C52.2099 68.9062 51.9317 68.791 51.7266 68.5859C51.5215 68.3808 51.4062 68.1026 51.4062 67.8125V47.0312H77.6562V68.9062ZM80.9375 68.9062H79.8438V49.2188H82.0312V67.8125C82.0312 68.1026 81.916 68.3808 81.7109 68.5859C81.5058 68.791 81.2276 68.9062 80.9375 68.9062ZM101.719 40.4688H89.6875V38.2812H101.719V40.4688Z" fill="#28285A"/>
<path d="M55.7812 66.7188H57.9688V64.5312H63.4375V66.7188H65.625V64.5312H71.0938V66.7188H73.2812V64.5312H75.4688V62.3438H73.2812V59.0625H75.4688V56.875H73.2812V53.5938H75.4688V51.4062H73.2812V49.2188H71.0938V51.4062H65.625V49.2188H63.4375V51.4062H57.9688V49.2188H55.7812V51.4062H53.5938V53.5938H55.7812V56.875H53.5938V59.0625H55.7812V62.3438H53.5938V64.5312H55.7812V66.7188ZM71.0938 62.3438H65.625V59.0625H71.0938V62.3438ZM71.0938 53.5938V56.875H65.625V53.5938H71.0938ZM57.9688 53.5938H63.4375V56.875H57.9688V53.5938ZM57.9688 59.0625H63.4375V62.3438H57.9688V59.0625Z" fill="#28285A"/>
<path d="M96.25 78.75H92.9688V76.5625C92.9688 76.2724 92.8535 75.9942 92.6484 75.7891C92.4433 75.584 92.1651 75.4688 91.875 75.4688H47.7717L43.6723 65.2192C43.5912 65.0161 43.451 64.842 43.2699 64.7193C43.0887 64.5967 42.875 64.5312 42.6562 64.5313H37.1875C36.8974 64.5313 36.6192 64.6465 36.4141 64.8516C36.209 65.0567 36.0938 65.3349 36.0938 65.625V98.4375C36.0938 98.7276 36.209 99.0058 36.4141 99.2109C36.6192 99.416 36.8974 99.5312 37.1875 99.5312H41.5625V102.812C41.5625 103.103 41.6777 103.381 41.8829 103.586C42.088 103.791 42.3662 103.906 42.6562 103.906H48.125C48.4151 103.906 48.6933 103.791 48.8984 103.586C49.1035 103.381 49.2188 103.103 49.2188 102.812V99.5312H80.9375V102.812C80.9375 103.103 81.0527 103.381 81.2579 103.586C81.463 103.791 81.7412 103.906 82.0312 103.906H87.5C87.7901 103.906 88.0683 103.791 88.2734 103.586C88.4785 103.381 88.5938 103.103 88.5938 102.812V99.5312H91.875C92.1651 99.5312 92.4433 99.416 92.6484 99.2109C92.8535 99.0058 92.9688 98.7276 92.9688 98.4375V96.25H96.25C96.5401 96.25 96.8183 96.1348 97.0234 95.9296C97.2285 95.7245 97.3438 95.4463 97.3438 95.1562V90.7812C97.3438 90.4912 97.2285 90.213 97.0234 90.0079C96.8183 89.8027 96.5401 89.6875 96.25 89.6875H92.9688V87.5H96.25C96.5401 87.5 96.8183 87.3848 97.0234 87.1796C97.2285 86.9745 97.3438 86.6963 97.3438 86.4062V79.8438C97.3438 79.5537 97.2285 79.2755 97.0234 79.0704C96.8183 78.8652 96.5401 78.75 96.25 78.75ZM41.9158 66.7188L45.4158 75.4688H38.2812V66.7188H41.9158ZM47.0312 101.719H43.75V99.5312H47.0312V101.719ZM86.4062 101.719H83.125V99.5312H86.4062V101.719ZM90.7812 97.3438H38.2812V95.1562H44.8438V92.9688H38.2812V90.7812H44.8438V88.5938H38.2812V86.4062H44.8438V84.2188H38.2812V82.0312H40.4688V79.8438H38.2812V77.6562H90.7812V97.3438ZM95.1562 91.875V94.0625H92.9688V91.875H95.1562ZM95.1562 85.3125H92.9688V80.9375H95.1562V85.3125Z" fill="#28285A"/>
<path d="M88.5938 79.8438H42.6562V82.0312H88.5938V79.8438Z" fill="#28285A"/>
<path d="M71.0938 85.3125H60.1562C59.8662 85.3125 59.588 85.4277 59.3829 85.6329C59.1777 85.838 59.0625 86.1162 59.0625 86.4062V90.7812C59.0625 91.0713 59.1777 91.3495 59.3829 91.5546C59.588 91.7598 59.8662 91.875 60.1562 91.875H71.0938C71.3838 91.875 71.662 91.7598 71.8671 91.5546C72.0723 91.3495 72.1875 91.0713 72.1875 90.7812V86.4062C72.1875 86.1162 72.0723 85.838 71.8671 85.6329C71.662 85.4277 71.3838 85.3125 71.0938 85.3125ZM70 89.6875H61.25V87.5H70V89.6875Z" fill="#28285A"/>
</svg>
