<svg width="140" height="140" viewBox="0 0 140 140" fill="none" xmlns="http://www.w3.org/2000/svg">
<circle cx="70" cy="70" r="70" fill="white"/>
<path d="M99.5312 45.9375H98.4375V44.4063C98.4375 44.0782 98.2844 43.761 98.0219 43.5532L95.8344 41.8032C95.3641 41.4313 94.675 41.5079 94.2922 41.9782C93.9203 42.4485 93.9969 43.1375 94.4672 43.5204L96.25 44.9313V45.9375H79.8438V44.9313L81.6266 43.5094C82.0969 43.1375 82.1734 42.4485 81.8016 41.9672C81.4188 41.4969 80.7406 41.4204 80.2594 41.7922L78.0719 43.5422C77.8094 43.761 77.6562 44.0782 77.6562 44.4063V45.9375H62.3438V44.4063C62.3438 44.0782 62.1906 43.761 61.9281 43.5532L59.7406 41.8032C59.2703 41.4313 58.5812 41.5079 58.1984 41.9782C57.8266 42.4485 57.9031 43.1375 58.3734 43.5204L60.1562 44.9313V45.9375H43.75V44.9313L45.5328 43.5094C46.0031 43.1375 46.0797 42.4485 45.7078 41.9672C45.325 41.4969 44.6469 41.4204 44.1656 41.7922L41.9781 43.5422C41.7156 43.761 41.5625 44.0782 41.5625 44.4063V45.9375H40.4688C38.0516 45.9375 36.0938 47.8954 36.0938 50.3125V94.0625C36.0938 96.4797 38.0516 98.4375 40.4688 98.4375H41.9781L40.5781 101.227C40.3047 101.763 40.5234 102.419 41.0703 102.692C41.2344 102.78 41.3984 102.813 41.5625 102.813C41.9672 102.813 42.35 102.594 42.5469 102.211L44.4281 98.4375H96.6656L98.5469 102.211C98.7437 102.594 99.1266 102.813 99.5312 102.813C99.6953 102.813 99.8594 102.78 100.023 102.692C100.559 102.419 100.778 101.763 100.516 101.227L99.1156 98.4375H99.5312C101.948 98.4375 103.906 96.4797 103.906 94.0625V50.3125C103.906 47.8954 101.948 45.9375 99.5312 45.9375ZM101.719 94.0625C101.719 95.2657 100.734 96.25 99.5312 96.25H40.4688C39.2656 96.25 38.2812 95.2657 38.2812 94.0625V50.3125C38.2812 49.1094 39.2656 48.125 40.4688 48.125H99.5312C100.734 48.125 101.719 49.1094 101.719 50.3125V94.0625Z" fill="#28285A"/>
<path d="M96.25 68.9062H43.75C43.1484 68.9062 42.6562 69.3984 42.6562 70V87.5C42.6562 88.1016 43.1484 88.5938 43.75 88.5938H96.25C96.8516 88.5938 97.3438 88.1016 97.3438 87.5V70C97.3438 69.3984 96.8516 68.9062 96.25 68.9062ZM95.1562 86.4062H44.8438V71.0938H95.1562V86.4062Z" fill="#28285A"/>
<path d="M47.0312 63.4375C49.4484 63.4375 51.4062 61.4797 51.4062 59.0625C51.4062 56.6453 49.4484 54.6875 47.0312 54.6875C44.6141 54.6875 42.6562 56.6453 42.6562 59.0625C42.6562 61.4797 44.6141 63.4375 47.0312 63.4375ZM47.0312 56.875C48.2344 56.875 49.2188 57.8594 49.2188 59.0625C49.2188 60.2656 48.2344 61.25 47.0312 61.25C45.8281 61.25 44.8438 60.2656 44.8438 59.0625C44.8438 57.8594 45.8281 56.875 47.0312 56.875Z" fill="#28285A"/>
<path d="M62.3438 63.4375C64.7609 63.4375 66.7188 61.4797 66.7188 59.0625C66.7188 56.6453 64.7609 54.6875 62.3438 54.6875C59.9266 54.6875 57.9688 56.6453 57.9688 59.0625C57.9688 61.4797 59.9266 63.4375 62.3438 63.4375ZM62.3438 56.875C63.5469 56.875 64.5312 57.8594 64.5312 59.0625C64.5312 60.2656 63.5469 61.25 62.3438 61.25C61.1406 61.25 60.1562 60.2656 60.1562 59.0625C60.1562 57.8594 61.1406 56.875 62.3438 56.875Z" fill="#28285A"/>
<path d="M77.6562 63.4375C80.0734 63.4375 82.0312 61.4797 82.0312 59.0625C82.0312 56.6453 80.0734 54.6875 77.6562 54.6875C75.2391 54.6875 73.2812 56.6453 73.2812 59.0625C73.2812 61.4797 75.2391 63.4375 77.6562 63.4375ZM77.6562 56.875C78.8594 56.875 79.8438 57.8594 79.8438 59.0625C79.8438 60.2656 78.8594 61.25 77.6562 61.25C76.4531 61.25 75.4688 60.2656 75.4688 59.0625C75.4688 57.8594 76.4531 56.875 77.6562 56.875Z" fill="#28285A"/>
<path d="M92.9688 54.6875C90.5516 54.6875 88.5938 56.6453 88.5938 59.0625C88.5938 61.4797 90.5516 63.4375 92.9688 63.4375C95.3859 63.4375 97.3438 61.4797 97.3438 59.0625C97.3438 56.6453 95.3859 54.6875 92.9688 54.6875ZM92.9688 61.25C91.7656 61.25 90.7812 60.2656 90.7812 59.0625C90.7812 57.8594 91.7656 56.875 92.9688 56.875C94.1719 56.875 95.1562 57.8594 95.1562 59.0625C95.1562 60.2656 94.1719 61.25 92.9688 61.25Z" fill="#28285A"/>
</svg>
